# FamiTracker text export 0.4.2

# Song information
TITLE           "File Fixers OST"
AUTHOR          "Various Artists"
COPYRIGHT       "2021"

# Song comment
COMMENT ""

# Global settings
MACHINE         0
FRAMERATE       0
EXPANSION       0
VIBRATO         1
SPLIT           32

# Macros
MACRO       0   0  -1  -1   0 : 3
MACRO       0   1  -1  -1   0 : 2 3 5 7 11 13 11 7 5 3 2
MACRO       0   2  -1  -1   0 : 12
MACRO       0   3  -1  -1   0 : 12
MACRO       0   4  -1  -1   0 : 14 12 9 0 0 0
MACRO       0   5  -1  -1   0 : 15 15 14 13 10 6 0 0 0
MACRO       0   6  -1  -1   0 : 14 14 13 10 6 0 0 0
MACRO       0   8  -1  -1   0 : 14 12 9 5 1 0
MACRO       0   9  -1  -1   0 : 15 15 15 14 14 13 12 10 7 3 0
MACRO       0  10  -1  -1   0 : 14 14 13 12 10 7 3 0
MACRO       0  11  -1  -1   0 : 14 14 14 14 14 14 14 14 14 14 14 14 14 14 14 14 14 14 14 14 14 14 14 0
MACRO       0  12  -1  -1   0 : 2 3 5 7 11 13
MACRO       0  17  -1  -1   0 : 2 3 4 5 7 3 3 3 3 3 3 3 3 3 3 3 2 3 3 3 3 2 2 2 2 2 1 1 1 1 1 0
MACRO       1   0  -1  -1   0 : 12 0
MACRO       1   1  -1  -1   0 : 0 -12 0 -12 0
MACRO       1   2  -1  -1   0 : 0 2 3 5 1 5 5 5 6 6 6 6 7 7 7 7 7 8
MACRO       1   3  -1  -1   0 : -12 0
MACRO       1   4  -1  -1   0 : 0 7 0
MACRO       1  10  -1  -1   0 : -12 0
MACRO       1  13  -1  -1   0 : 1 0 1
MACRO       2   0  14  -1   0 : 0 0 0 0 0 0 0 0 0 0 0 0 0 0 -1 0 -1 -1 0 1 0 1 1 0
MACRO       2   1   0  -1   0 : 15
MACRO       2   4   0  -1   0 : 15
MACRO       3   0   0  -1   0 : 16
MACRO       3   3  -1   1   0 : 3 3 -15
MACRO       4   0  -1  -1   0 : 2
MACRO       4   1  -1  -1   0 : 1 2
MACRO       4   2  -1  -1   0 : 3
MACRO       4   3  -1  -1   0 : 1
MACRO       4   4  -1  -1   0 : 1
MACRO       4   5  -1  -1   0 : 2
MACRO       4   6  -1  -1   0 : 2
MACRO       4   7  -1  -1   0 : 0 1 2 3

# DPCM samples
DPCMDEF   0   321 "KickMaster_$C200.dmc"
DPCM : B5 70 05 FF F0 0F FF 00 F0 0F B8 5F F0 F0 7F F5 00 0F 00 07 84 B0 00 50 07 A8 0F F0 AB 05 0F FF
DPCM : F5 4F FF FF 7F FF FF F7 8F 4F F7 F0 0A AF 48 0B 84 00 80 00 00 00 00 0A 0B 00 00 A8 40 A0 44 55
DPCM : 55 55 B7 AB F5 AB F7 AB FF 7B FF F5 FF FB BB BF 0F FF FF 5F FF 78 F7 F0 7A 74 07 57 A4 8A 40 85
DPCM : 40 0A 80 50 08 05 0A 80 00 00 0A 08 A0 0A 80 50 04 74 04 0B 0F 0F AB 5B 75 57 5F F7 57 BF 7F 7B
DPCM : FF F5 7F 7F FA 7B BF 7B AF 57 F7 5B FA B5 7A F0 55 55 87 57 A8 5A 48 74 80 AB 00 55 40 07 A5 40
DPCM : 58 A8 40 0A 45 A8 50 84 05 55 84 40 45 8A 44 55 A8 85 B4 AA 44 0F 4F B5 4A BB 5A 57 AF 77 75 BB
DPCM : 75 B7 7B B7 77 AF 5F B7 77 B7 5B 5F BB 7A 57 BB 7A 75 F0 B5 54 55 B5 4A 45 85 A5 A8 44 A8 A8 50
DPCM : 88 4A A0 48 44 A8 04 85 0A 54 85 44 07 A5 8A 4A 45 47 47 74 74 74 58 75 45 5F F4 F4 78 47 75 F5
DPCM : BA A5 5F B5 7A 55 77 8F A7 55 57 57 74 BB 8A 5B 75 54 5A A5 AA 5A AA AA AA AA 8A AA 0B 55 4B 54
DPCM : 55 55 55 55 75 74 70 45 55 55 55 75 45 75 45 55 55 AA 8A 87 AA B4 54 4B 55 55 55 44 55 55 55 5A
DPCM : F0
DPCMDEF   1   513 "KickMaster_$C000.dmc"
DPCM : FA F8 70 B7 74 75 A8 87 0F 74 0A 87 50 0A F4 50 AA 44 F0 F8 74 74 F4 55 FA 5B 78 BB A8 4F 87 F5
DPCM : 50 B7 A0 07 07 8B 0F A5 05 B5 0B F4 4A 05 F0 70 F5 0F F0 FF FF F5 0F 0F 0F 00 00 00 00 00 A0 00
DPCM : F7 0F FF FF FF F5 FF FF FF FF FF FF 00 00 B0 00 00 00 00 00 00 00 00 A0 F0 B0 FF FF FF FF FF FF
DPCM : FF FF FF 8F FF F0 00 00 07 0F 00 00 00 00 00 00 00 0F BF FF FF FF FF FF FF 5F FF FF FB B0 F0 50
DPCM : 00 00 00 00 00 00 00 00 00 F0 00 FF FF FF FF FF FF FF FB F0 FF FB F0 A0 08 F0 00 00 0A 00 00 00
DPCM : 0F 00 8F F0 F0 7F 0F FF FF 0B BF FF FF F0 F0 F7 F0 07 0F F8 00 0A 00 0F 07 40 A0 00 00 0F 4F F5
DPCM : 0F F0 FF F0 FF 5F FF F0 F5 F7 F7 50 FF 40 F0 F0 00 F0 00 00 00 0F 0A F0 00 F0 0F 0F 4F AF FA F8
DPCM : FF FF F0 F0 FF 8F 0F FF 00 0F 0F 08 0F F0 00 00 04 F0 0F 70 0B FF 80 FA B0 0F 0F FF 4B FF F8 F7
DPCM : F4 AF 0F AF F0 00 0F 0F 00 F0 B0 00 05 08 0F 0A 8F F0 F4 F0 F0 F5 47 0F FF FB 5F 4F 0F AF 0F 0B
DPCM : FB B0 00 04 F0 F0 70 F0 B0 00 87 0F 0F 0F 8A A7 0F 87 FF F0 A7 F0 FB F0 F0 0F 0F 0F 8F F0 F0 F0
DPCM : 00 0F 7B 08 F0 F0 50 0F 0F A0 0A 0F 8F 0F BF F0 7A F8 8F 5F 55 F5 F0 F4 55 04 AF 4F 80 0F 0F B0
DPCM : 00 FF 00 80 0F F7 0F 0F 5A F0 75 0B 0F 07 5F 0F 74 0F 8F 0F AF FB 70 FB 50 0F 0F 57 40 0F 0F 00
DPCM : A4 0F 0F F0 00 FF F0 F0 F0 F0 F0 F0 F0 0F F7 50 FF 0F F0 07 FF 00 FA F0 A8 7F F4 00 0F F0 F0 F0
DPCM : 00 F0 00 7F A0 B8 0F F0 4F 0F 5F 4B F5 8B BB FA F0 0F F0 0F 0F 0F F0 F0 F0 0A 00 8F 0F 8F 08 0F
DPCM : 0F 0F 07 BF F0 F0 F0 F0 50 B7 F0 87 07 AF BA 7B F0 F0 F0 F7 40 4F 55 F0 F4 40 AA F0 00 85 0F 04
DPCM : 8F F0 F8 84 F7 07 4B 5F AF AF F0 A5 0F 5A 0F 4F 4B F0 F0 F0 A0 B8 04 55 0F 78 55 F0 F0 F4 F0 F0
DPCM : B5
DPCMDEF   2   913 "SkateOrDie2_$FC00.dmc"
DPCM : FF AA A3 0F D4 07 55 DC FF 01 F8 00 AC FF 01 00 FF 83 0F 3E F8 E0 83 AF FF FF FF FF AF 3F 00 00
DPCM : 00 00 00 00 00 00 00 00 00 E0 FF FF FF FF FF FF FF FF FF FF FF 0F 1E 00 00 00 00 00 00 00 00 00
DPCM : 00 00 00 FC FF FF FF FF FF FF FF FF FF FF FF FF 47 00 00 00 00 00 00 00 00 00 00 00 00 00 FE FF
DPCM : FF FF FF FF FF FF FF FF FF FF FF FF FF FF 07 08 00 00 00 00 00 00 00 00 00 00 00 00 00 00 00 A0
DPCM : FF FF FF FF FF FF FF FF FF FF FF FF FF FF FF FF 3F 00 00 00 00 00 00 00 00 00 00 00 00 00 00 C0
DPCM : 5F A0 FF FF 9F FF F0 FF FF FF 87 F7 FF FF FF 57 E0 FF BF 1F 80 E0 03 00 00 A8 00 00 F0 29 00 40
DPCM : 5C 00 FE 07 E0 BF 5F FE 7F FF AF FF 3F 78 6F 7C 40 3E 00 00 00 00 3E 00 00 5C 50 00 A0 E0 7F 0F
DPCM : 16 F8 E0 FF 7F FF AF 1F FC BF FF FF 0A FC AF FF FF 6F FC 0F FE 57 0F FC 0F 40 00 0B 00 00 00 00
DPCM : 00 00 00 00 00 00 00 00 00 00 00 00 F0 FF FF FF FF FF FF FF FF FF FF FF FF FF FF FF FF FF FF FF
DPCM : 0F 2A 00 1F 00 00 00 00 00 00 00 2A 00 00 28 70 C1 07 1F 00 F0 EB 07 FF 03 F0 29 50 08 AC 0F 3E
DPCM : 00 A8 7F 0F 00 F8 F4 BF FF FF FF FF FF FF FF FF FF FF FF FF FF FF 83 80 FE 07 00 00 00 00 00 00
DPCM : 00 00 00 00 00 00 00 2A 00 0B 5C 5F 29 00 7F FF 0F 1E 58 1F 7C BF D7 AF AA FF FF D1 FF F4 AB FF
DPCM : FF FF 6F 7C B0 EF 07 E0 83 F0 15 A8 A0 03 A0 D5 07 00 7C 80 90 AF 0A 7C 80 C1 07 1F 7C 00 AA 07
DPCM : 15 2C 00 DE 07 0F D0 8F 01 A8 4F A8 0F 3E F8 E0 83 4F D4 FF E8 DF 0F FE FF EB FF FF EB A7 9F BE
DPCM : FF 01 F8 1F A8 A5 14 00 1F 00 80 A0 07 00 3C 40 E0 07 F4 2B F0 C1 87 1F 00 F0 2B A8 40 3C 80 A9
DPCM : 07 F5 2B 50 FE 07 FF 5F F0 EB FF EB AB 5F D6 7F 4F BC AF 29 F8 AA 43 70 BE 07 E0 03 00 1E F8 08
DPCM : 2C F0 C1 07 54 A0 5F 40 F8 1F C0 4F 90 57 0B FC 4F D4 5F 94 2F B0 3F F8 E8 83 AF C1 5F E0 A3 0F
DPCM : 96 AF E0 D3 0F 2A F8 EA 2B 50 54 B8 15 2C F0 01 80 9F 03 F0 51 F8 E0 83 0F AA AF E0 AB 0F EA BF
DPCM : B7 7F F0 EB 5F FF 83 F0 6F 58 FF 03 F0 01 58 15 2C 80 14 F8 00 DC 0F AA 07 A8 53 A0 1F F8 00 FC
DPCM : 0F 2A 58 AA A3 0F 7E 87 0A 7C 4F D0 A7 E0 83 5F EA A7 F0 A3 0F FE A7 F0 D3 8F 95 47 4F A8 AF 2F
DPCM : A8 A0 D3 0F 54 F8 E8 AB 0F EA 07 50 7C 50 D6 07 A8 83 0B 2A A8 0F A0 0F E0 07 1F D4 0F 80 AF B4
DPCM : 23 B0 57 58 EA AB 0F EA 57 6A FC AF C1 57 FF C3 7F E8 57 55 FC AF 41 F8 1F 7C B0 11 A0 6A 2C 80
DPCM : 14 A0 0F 40 50 28 A8 0F D0 4F A0 AF AA D3 0F 3E F8 F5 57 F0 6F 78 F7 43 F0 D5 47 E8 83 0A AA 07
DPCM : E8 83 0F 2A A8 1F 7C A5 D5 57 9F 5F F0 AF 87 FF A3 0F 90 BD E0 83 A0 81 50 AA 03 00 EA 07 A0 83
DPCM : 0F 80 87 EA 83 4F 3E F8 5F FC 5F EE BF 95 D3 5F D0 7F 55 54 70 E8 07 15 54 70 A8 07 A8 23 B0 2F
DPCM : A8 50 7C 07 1E B8 95 A3 AF A9 07 0B FC 0F D6 5F E8 83 4F D6 87 17 FC 0F 2A B8 4B D0 7F 80 B8 B4
DPCM : 03 F0 2F 50 4B BC 0F 90 47 EA 2B F0 57 B8 AF C3 0F 6A B8 17 DC 0F A8 07 17 54 50 3E 50 1F AC 0F
DPCM : 50 B8 6A AC 0F 6A F8 EB 83 5F D4 AF F5 03 F0 2F F8 B4 23 B0 95 07 4B DC 0F E0 47 F4 83 0B 3E F8
DPCM : 4A BC 0F 6A 78 AA A3 0F D4 87 90 57 80 2F A8 AA 83
DPCMDEF   3  1009 "SkateOrDie2_$F800.dmc"
DPCM : 00 EF 5F 00 00 00 00 FF FF FF FF FF FF 00 00 00 00 00 FC 3F 00 00 00 F0 FF FF FF FF 3F 00 00 00
DPCM : 00 FC C0 0F 00 00 00 00 C0 FF FF FF FF FF FF FF FF C0 FF 53 00 00 00 00 00 00 00 F0 03 FF FF FF
DPCM : FF FF FF FF FF FF FF 0F 00 00 00 00 00 00 00 00 00 00 C0 FF FF FF FF FF FF FF FF 3F 00 00 00 00
DPCM : 00 00 00 00 FF 0F 00 FF FF FF FF FF FF FF FF FF 00 00 00 00 00 00 00 00 00 3F F0 FF FF FF FF FF
DPCM : FF FF FF 0F 00 00 00 00 00 00 00 C0 FF FF FF FF FF FF FF FF 15 F0 43 3F 00 00 00 00 00 00 00 FC
DPCM : C0 FF FF FF FF FF FF FF 5F 3F 00 FC 00 F0 03 C0 0F 00 00 50 FC C0 BF FF FF FF 03 FF FF 57 FF 0F
DPCM : 00 00 00 00 C0 FF 03 00 F0 03 00 00 FC FF FF FF FF FF 03 3F 00 00 3F 00 00 3F 00 00 3F F0 FF 00
DPCM : F0 53 3F F0 FF FF FF 03 00 F0 03 EB FF 03 00 F0 FF FF FF 03 C0 0F 00 3F F0 AF 00 00 00 FF 5F FC
DPCM : D5 0F FC 00 F0 FF 2F 00 FC C0 FF 53 3F 00 00 FF FF AF 00 F0 FF 00 F0 03 FF FF 03 3F 00 00 00 00
DPCM : FC 00 00 00 40 F0 FF C0 FF FF 3F F0 FF FF FF 03 00 00 00 3F F0 03 C0 FF 03 D0 FF 03 3F F0 03 D4
DPCM : FF FF FF FF 03 10 00 FC 3F 00 00 C0 0F 00 3F 00 A0 00 F0 FF FF FF 03 FF 0F FC 3F F0 03 3F 00 00
DPCM : C0 0F 00 DF 0F FC 3F F0 03 FF FF FF C0 0F FC C0 0F FC 00 00 00 00 F0 03 FF 0F FC C0 FF FF 3F F0
DPCM : 03 FF 0F 00 C0 FF 03 3F 00 00 FF FF 03 C0 FF 03 C0 0F FC 3F F0 03 FF FF 03 3F 00 FC FF 0F 00 00
DPCM : 50 00 40 F0 03 BF FF FF 3F 00 BC C0 0F FC 7F 00 00 3F 00 00 FF FF FF 00 00 00 3F F0 AB FF FF FF
DPCM : FF FF 53 C0 0F 00 00 70 A8 00 00 FC 3F 00 FC FF 0F 00 FF 0F 50 FF 0F 00 C0 0F FC FF FF FF C0 0F
DPCM : 40 00 00 00 C0 FF 03 00 F0 FF FF FF FF C0 FF 03 FF 0F FC 3F 00 00 00 00 00 C0 0F FC 3F F0 03 3F
DPCM : F0 FF FF 5F FC D0 0F 00 C0 FF 03 40 40 FC 00 F0 03 1F F0 FF 3F F0 FF FF FF FF 2F 00 00 00 00 FC
DPCM : 3F 00 00 3F 00 FC 00 F0 FF FF FF 03 3F F0 FF D7 FF 03 3F 00 00 00 00 54 00 00 00 FF FF FF FF FF
DPCM : FF FF FF 03 3F 00 00 14 00 BC 00 00 00 C0 0F FC 15 00 FC FF FF FF 3F F0 FF 3F F0 03 C0 0F 00 00
DPCM : 00 50 C0 0F 00 FF BF FF FF FF FF C0 FF FF 2F 00 FC 00 00 00 2B 00 00 00 F0 03 D4 FF FF FF FF FF
DPCM : FF FF 03 15 00 00 00 00 00 00 00 00 FF FF 7F C0 FF FF FF FF FF FF FF 03 00 00 00 00 F0 03 00 F0
DPCM : FF EA 0F FC C0 FF 03 FF FF 03 D4 FF 03 00 F0 03 00 B0 03 3F 00 A0 EA 0F FC FF FF 03 FF FF 03 3F
DPCM : 00 FC C0 0F FC 00 00 50 00 F0 7F 14 F0 FF FF FF 03 FF 0F FC 00 00 FC 00 A0 A3 C0 FF 03 DF 0F 5C
DPCM : 00 F0 A3 3F 80 FF FF 0F FC 54 A0 AB 17 F0 03 00 F0 5F 28 00 FC FF 8F 03 FF 7F 7C C0 0F 00 3F F0
DPCM : AF 20 F0 03 BF FF A3 00 00 FC C0 0F FC 2A F0 7F 3F 00 FC 3F B0 03 17 F0 AB 3F A0 A3 2A A0 BF 3F
DPCM : 00 00 FF AF 5F 40 00 FC 3F F0 FF 20 F0 03 BF 0F 00 C0 AF 57 D4 0F FC E0 0F 00 E0 4F FC 2B F0 FF
DPCM : E8 0F 5C EF 0F 00 6A F0 03 2F 00 AC E8 0F FC E0 FF 03 AF 0F AC C0 FF 53 C0 FF 03 40 F0 FF 00 B0
DPCM : AF 80 0F A0 EA FF A3 C0 AF A3 AA 0F 5C 2F 40 54 5F F0 53 2A F0 AB 2F 00 BC EF 0F A0 EF AF 03 10
DPCM : F0 5F AA 0F A0 BF 0F 00 14 F0 7F D0 5F BC AA 0F 50 EA 8F A3 2F 40 FC 14 A0 5F 3F 00 FC AF 0F AC
DPCM : 14 B0 BF 1F 00 7C D5 8F A3 2A F0 AB 68 80 43 FF 0F 5C E0 8F AB 28 40 FC 3F F0 AB AA 0F 54 28 F0
DPCM : BF 6A 40 FC 15 B0 A3 BF 0F 54 AB 0F AC AA 0F AC D0 8F 43 E8 8F 43 C0 5F 80 7F B5 A3 D0 0F 54 AF
DPCM : 0F A8 D5 0F 54 AA 0F 54 1F 70 AC D4 AF A3 AA 0F AC
DPCMDEF   4   449 "Abadox_$C1C0.dmc"
DPCM : FE FF DE FF E3 EF 8C 44 34 12 53 21 32 33 1C 21 00 23 00 20 00 12 03 00 FE EF DF F7 DE 7F FF FF
DPCM : FF 67 EE FF FF DD FF FF 21 50 23 32 10 21 30 80 C3 30 20 12 03 12 10 00 DF E7 DC FF BF DF BB FF
DPCM : CF DE FF EC FF CD FE FF 10 00 12 02 80 98 A2 00 02 32 00 10 A0 00 21 00 EC FE DF FD CF EC BD DC
DPCM : BE DF FE FB DE FF BE DE 1D 1E 7D 9E 7F E7 EF 3F 7F 3F 87 DC 63 18 73 0C 23 18 88 53 11 06 0D 62
DPCM : 03 3C 33 24 E7 7C AE F3 E7 1F F8 F0 F3 CF 71 AE 1C 8E CF 08 CE 0C CC 18 31 C2 40 E1 8E 18 2C D1
DPCM : 91 ED 9F 0F CF A7 3C FF 93 C7 CC F5 38 39 B8 19 47 88 46 D6 04 76 31 85 1C 58 63 9C 61 79 8C F3
DPCM : 98 F7 78 27 C7 9F 64 77 39 0F 8C F5 86 2F 91 8C 71 C7 21 E1 C4 19 8C 41 66 07 A6 2E 8A E7 43 CF
DPCM : 9E 1F 9E 71 F3 E3 B7 18 FC 63 C3 18 C3 B0 E0 E3 0F 08 E0 71 8C C1 8F 19 C3 39 39 99 F1 BC 74 76
DPCM : E2 F3 C7 97 19 E3 63 39 87 C6 37 0F 09 C6 71 23 88 E0 A9 83 8B 19 87 66 71 8C EF 0D DA F4 73 EE
DPCM : 1C DB 8E 76 1A 39 0E 71 C6 2E 31 C3 9C 59 07 A1 C0 F1 19 9C 58 CE 2E 2D 6E 3C E3 39 E3 8E B8 E7
DPCM : 1C E3 A7 0D 8E 47 94 B7 05 C2 39 E6 26 36 19 8C 74 98 CD 47 38 59 E8 D3 53 B8 F2 6E AC B3 B4 E5
DPCM : 71 27 8E 8C 8F 1A 3C 8A 73 8E 1C 6B 29 8E 1C 2C 68 D9 31 E3 55 47 39 AB 2D 97 38 D3 B1 CE 38 F1
DPCM : D4 B3 4E A9 62 AD 54 B2 38 C9 A8 AC A9 18 E6 51 9A 73 29 9E 39 9A D5 A7 96 D3 65 9D 58 BA 61 DA
DPCM : 46 AA 3C 52 B1 A5 66 63 8D 31 E0 E5 95 2A CC B2 9C AC AB 39 66 A7 4B 99 5A 6A CC AB 8B 55 A6 A6
DPCM : 0D
DPCMDEF   5   321 "KickMaster_$C200.dmc"
DPCM : B5 70 05 FF F0 0F FF 00 F0 0F B8 5F F0 F0 7F F5 00 0F 00 07 84 B0 00 50 07 A8 0F F0 AB 05 0F FF
DPCM : F5 4F FF FF 7F FF FF F7 8F 4F F7 F0 0A AF 48 0B 84 00 80 00 00 00 00 0A 0B 00 00 A8 40 A0 44 55
DPCM : 55 55 B7 AB F5 AB F7 AB FF 7B FF F5 FF FB BB BF 0F FF FF 5F FF 78 F7 F0 7A 74 07 57 A4 8A 40 85
DPCM : 40 0A 80 50 08 05 0A 80 00 00 0A 08 A0 0A 80 50 04 74 04 0B 0F 0F AB 5B 75 57 5F F7 57 BF 7F 7B
DPCM : FF F5 7F 7F FA 7B BF 7B AF 57 F7 5B FA B5 7A F0 55 55 87 57 A8 5A 48 74 80 AB 00 55 40 07 A5 40
DPCM : 58 A8 40 0A 45 A8 50 84 05 55 84 40 45 8A 44 55 A8 85 B4 AA 44 0F 4F B5 4A BB 5A 57 AF 77 75 BB
DPCM : 75 B7 7B B7 77 AF 5F B7 77 B7 5B 5F BB 7A 57 BB 7A 75 F0 B5 54 55 B5 4A 45 85 A5 A8 44 A8 A8 50
DPCM : 88 4A A0 48 44 A8 04 85 0A 54 85 44 07 A5 8A 4A 45 47 47 74 74 74 58 75 45 5F F4 F4 78 47 75 F5
DPCM : BA A5 5F B5 7A 55 77 8F A7 55 57 57 74 BB 8A 5B 75 54 5A A5 AA 5A AA AA AA AA 8A AA 0B 55 4B 54
DPCM : 55 55 55 55 75 74 70 45 55 55 55 75 45 75 45 55 55 AA 8A 87 AA B4 54 4B 55 55 55 44 55 55 55 5A
DPCM : F0
DPCMDEF   6   513 "KickMaster_$C000.dmc"
DPCM : FA F8 70 B7 74 75 A8 87 0F 74 0A 87 50 0A F4 50 AA 44 F0 F8 74 74 F4 55 FA 5B 78 BB A8 4F 87 F5
DPCM : 50 B7 A0 07 07 8B 0F A5 05 B5 0B F4 4A 05 F0 70 F5 0F F0 FF FF F5 0F 0F 0F 00 00 00 00 00 A0 00
DPCM : F7 0F FF FF FF F5 FF FF FF FF FF FF 00 00 B0 00 00 00 00 00 00 00 00 A0 F0 B0 FF FF FF FF FF FF
DPCM : FF FF FF 8F FF F0 00 00 07 0F 00 00 00 00 00 00 00 0F BF FF FF FF FF FF FF 5F FF FF FB B0 F0 50
DPCM : 00 00 00 00 00 00 00 00 00 F0 00 FF FF FF FF FF FF FF FB F0 FF FB F0 A0 08 F0 00 00 0A 00 00 00
DPCM : 0F 00 8F F0 F0 7F 0F FF FF 0B BF FF FF F0 F0 F7 F0 07 0F F8 00 0A 00 0F 07 40 A0 00 00 0F 4F F5
DPCM : 0F F0 FF F0 FF 5F FF F0 F5 F7 F7 50 FF 40 F0 F0 00 F0 00 00 00 0F 0A F0 00 F0 0F 0F 4F AF FA F8
DPCM : FF FF F0 F0 FF 8F 0F FF 00 0F 0F 08 0F F0 00 00 04 F0 0F 70 0B FF 80 FA B0 0F 0F FF 4B FF F8 F7
DPCM : F4 AF 0F AF F0 00 0F 0F 00 F0 B0 00 05 08 0F 0A 8F F0 F4 F0 F0 F5 47 0F FF FB 5F 4F 0F AF 0F 0B
DPCM : FB B0 00 04 F0 F0 70 F0 B0 00 87 0F 0F 0F 8A A7 0F 87 FF F0 A7 F0 FB F0 F0 0F 0F 0F 8F F0 F0 F0
DPCM : 00 0F 7B 08 F0 F0 50 0F 0F A0 0A 0F 8F 0F BF F0 7A F8 8F 5F 55 F5 F0 F4 55 04 AF 4F 80 0F 0F B0
DPCM : 00 FF 00 80 0F F7 0F 0F 5A F0 75 0B 0F 07 5F 0F 74 0F 8F 0F AF FB 70 FB 50 0F 0F 57 40 0F 0F 00
DPCM : A4 0F 0F F0 00 FF F0 F0 F0 F0 F0 F0 F0 0F F7 50 FF 0F F0 07 FF 00 FA F0 A8 7F F4 00 0F F0 F0 F0
DPCM : 00 F0 00 7F A0 B8 0F F0 4F 0F 5F 4B F5 8B BB FA F0 0F F0 0F 0F 0F F0 F0 F0 0A 00 8F 0F 8F 08 0F
DPCM : 0F 0F 07 BF F0 F0 F0 F0 50 B7 F0 87 07 AF BA 7B F0 F0 F0 F7 40 4F 55 F0 F4 40 AA F0 00 85 0F 04
DPCM : 8F F0 F8 84 F7 07 4B 5F AF AF F0 A5 0F 5A 0F 4F 4B F0 F0 F0 A0 B8 04 55 0F 78 55 F0 F0 F4 F0 F0
DPCM : B5
DPCMDEF   7   913 "SkateOrDie2_$FC00.dmc"
DPCM : FF AA A3 0F D4 07 55 DC FF 01 F8 00 AC FF 01 00 FF 83 0F 3E F8 E0 83 AF FF FF FF FF AF 3F 00 00
DPCM : 00 00 00 00 00 00 00 00 00 E0 FF FF FF FF FF FF FF FF FF FF FF 0F 1E 00 00 00 00 00 00 00 00 00
DPCM : 00 00 00 FC FF FF FF FF FF FF FF FF FF FF FF FF 47 00 00 00 00 00 00 00 00 00 00 00 00 00 FE FF
DPCM : FF FF FF FF FF FF FF FF FF FF FF FF FF FF 07 08 00 00 00 00 00 00 00 00 00 00 00 00 00 00 00 A0
DPCM : FF FF FF FF FF FF FF FF FF FF FF FF FF FF FF FF 3F 00 00 00 00 00 00 00 00 00 00 00 00 00 00 C0
DPCM : 5F A0 FF FF 9F FF F0 FF FF FF 87 F7 FF FF FF 57 E0 FF BF 1F 80 E0 03 00 00 A8 00 00 F0 29 00 40
DPCM : 5C 00 FE 07 E0 BF 5F FE 7F FF AF FF 3F 78 6F 7C 40 3E 00 00 00 00 3E 00 00 5C 50 00 A0 E0 7F 0F
DPCM : 16 F8 E0 FF 7F FF AF 1F FC BF FF FF 0A FC AF FF FF 6F FC 0F FE 57 0F FC 0F 40 00 0B 00 00 00 00
DPCM : 00 00 00 00 00 00 00 00 00 00 00 00 F0 FF FF FF FF FF FF FF FF FF FF FF FF FF FF FF FF FF FF FF
DPCM : 0F 2A 00 1F 00 00 00 00 00 00 00 2A 00 00 28 70 C1 07 1F 00 F0 EB 07 FF 03 F0 29 50 08 AC 0F 3E
DPCM : 00 A8 7F 0F 00 F8 F4 BF FF FF FF FF FF FF FF FF FF FF FF FF FF FF 83 80 FE 07 00 00 00 00 00 00
DPCM : 00 00 00 00 00 00 00 2A 00 0B 5C 5F 29 00 7F FF 0F 1E 58 1F 7C BF D7 AF AA FF FF D1 FF F4 AB FF
DPCM : FF FF 6F 7C B0 EF 07 E0 83 F0 15 A8 A0 03 A0 D5 07 00 7C 80 90 AF 0A 7C 80 C1 07 1F 7C 00 AA 07
DPCM : 15 2C 00 DE 07 0F D0 8F 01 A8 4F A8 0F 3E F8 E0 83 4F D4 FF E8 DF 0F FE FF EB FF FF EB A7 9F BE
DPCM : FF 01 F8 1F A8 A5 14 00 1F 00 80 A0 07 00 3C 40 E0 07 F4 2B F0 C1 87 1F 00 F0 2B A8 40 3C 80 A9
DPCM : 07 F5 2B 50 FE 07 FF 5F F0 EB FF EB AB 5F D6 7F 4F BC AF 29 F8 AA 43 70 BE 07 E0 03 00 1E F8 08
DPCM : 2C F0 C1 07 54 A0 5F 40 F8 1F C0 4F 90 57 0B FC 4F D4 5F 94 2F B0 3F F8 E8 83 AF C1 5F E0 A3 0F
DPCM : 96 AF E0 D3 0F 2A F8 EA 2B 50 54 B8 15 2C F0 01 80 9F 03 F0 51 F8 E0 83 0F AA AF E0 AB 0F EA BF
DPCM : B7 7F F0 EB 5F FF 83 F0 6F 58 FF 03 F0 01 58 15 2C 80 14 F8 00 DC 0F AA 07 A8 53 A0 1F F8 00 FC
DPCM : 0F 2A 58 AA A3 0F 7E 87 0A 7C 4F D0 A7 E0 83 5F EA A7 F0 A3 0F FE A7 F0 D3 8F 95 47 4F A8 AF 2F
DPCM : A8 A0 D3 0F 54 F8 E8 AB 0F EA 07 50 7C 50 D6 07 A8 83 0B 2A A8 0F A0 0F E0 07 1F D4 0F 80 AF B4
DPCM : 23 B0 57 58 EA AB 0F EA 57 6A FC AF C1 57 FF C3 7F E8 57 55 FC AF 41 F8 1F 7C B0 11 A0 6A 2C 80
DPCM : 14 A0 0F 40 50 28 A8 0F D0 4F A0 AF AA D3 0F 3E F8 F5 57 F0 6F 78 F7 43 F0 D5 47 E8 83 0A AA 07
DPCM : E8 83 0F 2A A8 1F 7C A5 D5 57 9F 5F F0 AF 87 FF A3 0F 90 BD E0 83 A0 81 50 AA 03 00 EA 07 A0 83
DPCM : 0F 80 87 EA 83 4F 3E F8 5F FC 5F EE BF 95 D3 5F D0 7F 55 54 70 E8 07 15 54 70 A8 07 A8 23 B0 2F
DPCM : A8 50 7C 07 1E B8 95 A3 AF A9 07 0B FC 0F D6 5F E8 83 4F D6 87 17 FC 0F 2A B8 4B D0 7F 80 B8 B4
DPCM : 03 F0 2F 50 4B BC 0F 90 47 EA 2B F0 57 B8 AF C3 0F 6A B8 17 DC 0F A8 07 17 54 50 3E 50 1F AC 0F
DPCM : 50 B8 6A AC 0F 6A F8 EB 83 5F D4 AF F5 03 F0 2F F8 B4 23 B0 95 07 4B DC 0F E0 47 F4 83 0B 3E F8
DPCM : 4A BC 0F 6A 78 AA A3 0F D4 87 90 57 80 2F A8 AA 83
DPCMDEF   8  1009 "SkateOrDie2_$F800.dmc"
DPCM : 00 EF 5F 00 00 00 00 FF FF FF FF FF FF 00 00 00 00 00 FC 3F 00 00 00 F0 FF FF FF FF 3F 00 00 00
DPCM : 00 FC C0 0F 00 00 00 00 C0 FF FF FF FF FF FF FF FF C0 FF 53 00 00 00 00 00 00 00 F0 03 FF FF FF
DPCM : FF FF FF FF FF FF FF 0F 00 00 00 00 00 00 00 00 00 00 C0 FF FF FF FF FF FF FF FF 3F 00 00 00 00
DPCM : 00 00 00 00 FF 0F 00 FF FF FF FF FF FF FF FF FF 00 00 00 00 00 00 00 00 00 3F F0 FF FF FF FF FF
DPCM : FF FF FF 0F 00 00 00 00 00 00 00 C0 FF FF FF FF FF FF FF FF 15 F0 43 3F 00 00 00 00 00 00 00 FC
DPCM : C0 FF FF FF FF FF FF FF 5F 3F 00 FC 00 F0 03 C0 0F 00 00 50 FC C0 BF FF FF FF 03 FF FF 57 FF 0F
DPCM : 00 00 00 00 C0 FF 03 00 F0 03 00 00 FC FF FF FF FF FF 03 3F 00 00 3F 00 00 3F 00 00 3F F0 FF 00
DPCM : F0 53 3F F0 FF FF FF 03 00 F0 03 EB FF 03 00 F0 FF FF FF 03 C0 0F 00 3F F0 AF 00 00 00 FF 5F FC
DPCM : D5 0F FC 00 F0 FF 2F 00 FC C0 FF 53 3F 00 00 FF FF AF 00 F0 FF 00 F0 03 FF FF 03 3F 00 00 00 00
DPCM : FC 00 00 00 40 F0 FF C0 FF FF 3F F0 FF FF FF 03 00 00 00 3F F0 03 C0 FF 03 D0 FF 03 3F F0 03 D4
DPCM : FF FF FF FF 03 10 00 FC 3F 00 00 C0 0F 00 3F 00 A0 00 F0 FF FF FF 03 FF 0F FC 3F F0 03 3F 00 00
DPCM : C0 0F 00 DF 0F FC 3F F0 03 FF FF FF C0 0F FC C0 0F FC 00 00 00 00 F0 03 FF 0F FC C0 FF FF 3F F0
DPCM : 03 FF 0F 00 C0 FF 03 3F 00 00 FF FF 03 C0 FF 03 C0 0F FC 3F F0 03 FF FF 03 3F 00 FC FF 0F 00 00
DPCM : 50 00 40 F0 03 BF FF FF 3F 00 BC C0 0F FC 7F 00 00 3F 00 00 FF FF FF 00 00 00 3F F0 AB FF FF FF
DPCM : FF FF 53 C0 0F 00 00 70 A8 00 00 FC 3F 00 FC FF 0F 00 FF 0F 50 FF 0F 00 C0 0F FC FF FF FF C0 0F
DPCM : 40 00 00 00 C0 FF 03 00 F0 FF FF FF FF C0 FF 03 FF 0F FC 3F 00 00 00 00 00 C0 0F FC 3F F0 03 3F
DPCM : F0 FF FF 5F FC D0 0F 00 C0 FF 03 40 40 FC 00 F0 03 1F F0 FF 3F F0 FF FF FF FF 2F 00 00 00 00 FC
DPCM : 3F 00 00 3F 00 FC 00 F0 FF FF FF 03 3F F0 FF D7 FF 03 3F 00 00 00 00 54 00 00 00 FF FF FF FF FF
DPCM : FF FF FF 03 3F 00 00 14 00 BC 00 00 00 C0 0F FC 15 00 FC FF FF FF 3F F0 FF 3F F0 03 C0 0F 00 00
DPCM : 00 50 C0 0F 00 FF BF FF FF FF FF C0 FF FF 2F 00 FC 00 00 00 2B 00 00 00 F0 03 D4 FF FF FF FF FF
DPCM : FF FF 03 15 00 00 00 00 00 00 00 00 FF FF 7F C0 FF FF FF FF FF FF FF 03 00 00 00 00 F0 03 00 F0
DPCM : FF EA 0F FC C0 FF 03 FF FF 03 D4 FF 03 00 F0 03 00 B0 03 3F 00 A0 EA 0F FC FF FF 03 FF FF 03 3F
DPCM : 00 FC C0 0F FC 00 00 50 00 F0 7F 14 F0 FF FF FF 03 FF 0F FC 00 00 FC 00 A0 A3 C0 FF 03 DF 0F 5C
DPCM : 00 F0 A3 3F 80 FF FF 0F FC 54 A0 AB 17 F0 03 00 F0 5F 28 00 FC FF 8F 03 FF 7F 7C C0 0F 00 3F F0
DPCM : AF 20 F0 03 BF FF A3 00 00 FC C0 0F FC 2A F0 7F 3F 00 FC 3F B0 03 17 F0 AB 3F A0 A3 2A A0 BF 3F
DPCM : 00 00 FF AF 5F 40 00 FC 3F F0 FF 20 F0 03 BF 0F 00 C0 AF 57 D4 0F FC E0 0F 00 E0 4F FC 2B F0 FF
DPCM : E8 0F 5C EF 0F 00 6A F0 03 2F 00 AC E8 0F FC E0 FF 03 AF 0F AC C0 FF 53 C0 FF 03 40 F0 FF 00 B0
DPCM : AF 80 0F A0 EA FF A3 C0 AF A3 AA 0F 5C 2F 40 54 5F F0 53 2A F0 AB 2F 00 BC EF 0F A0 EF AF 03 10
DPCM : F0 5F AA 0F A0 BF 0F 00 14 F0 7F D0 5F BC AA 0F 50 EA 8F A3 2F 40 FC 14 A0 5F 3F 00 FC AF 0F AC
DPCM : 14 B0 BF 1F 00 7C D5 8F A3 2A F0 AB 68 80 43 FF 0F 5C E0 8F AB 28 40 FC 3F F0 AB AA 0F 54 28 F0
DPCM : BF 6A 40 FC 15 B0 A3 BF 0F 54 AB 0F AC AA 0F AC D0 8F 43 E8 8F 43 C0 5F 80 7F B5 A3 D0 0F 54 AF
DPCM : 0F A8 D5 0F 54 AA 0F 54 1F 70 AC D4 AF A3 AA 0F AC
DPCMDEF   9   449 "Abadox_$C1C0.dmc"
DPCM : FE FF DE FF E3 EF 8C 44 34 12 53 21 32 33 1C 21 00 23 00 20 00 12 03 00 FE EF DF F7 DE 7F FF FF
DPCM : FF 67 EE FF FF DD FF FF 21 50 23 32 10 21 30 80 C3 30 20 12 03 12 10 00 DF E7 DC FF BF DF BB FF
DPCM : CF DE FF EC FF CD FE FF 10 00 12 02 80 98 A2 00 02 32 00 10 A0 00 21 00 EC FE DF FD CF EC BD DC
DPCM : BE DF FE FB DE FF BE DE 1D 1E 7D 9E 7F E7 EF 3F 7F 3F 87 DC 63 18 73 0C 23 18 88 53 11 06 0D 62
DPCM : 03 3C 33 24 E7 7C AE F3 E7 1F F8 F0 F3 CF 71 AE 1C 8E CF 08 CE 0C CC 18 31 C2 40 E1 8E 18 2C D1
DPCM : 91 ED 9F 0F CF A7 3C FF 93 C7 CC F5 38 39 B8 19 47 88 46 D6 04 76 31 85 1C 58 63 9C 61 79 8C F3
DPCM : 98 F7 78 27 C7 9F 64 77 39 0F 8C F5 86 2F 91 8C 71 C7 21 E1 C4 19 8C 41 66 07 A6 2E 8A E7 43 CF
DPCM : 9E 1F 9E 71 F3 E3 B7 18 FC 63 C3 18 C3 B0 E0 E3 0F 08 E0 71 8C C1 8F 19 C3 39 39 99 F1 BC 74 76
DPCM : E2 F3 C7 97 19 E3 63 39 87 C6 37 0F 09 C6 71 23 88 E0 A9 83 8B 19 87 66 71 8C EF 0D DA F4 73 EE
DPCM : 1C DB 8E 76 1A 39 0E 71 C6 2E 31 C3 9C 59 07 A1 C0 F1 19 9C 58 CE 2E 2D 6E 3C E3 39 E3 8E B8 E7
DPCM : 1C E3 A7 0D 8E 47 94 B7 05 C2 39 E6 26 36 19 8C 74 98 CD 47 38 59 E8 D3 53 B8 F2 6E AC B3 B4 E5
DPCM : 71 27 8E 8C 8F 1A 3C 8A 73 8E 1C 6B 29 8E 1C 2C 68 D9 31 E3 55 47 39 AB 2D 97 38 D3 B1 CE 38 F1
DPCM : D4 B3 4E A9 62 AD 54 B2 38 C9 A8 AC A9 18 E6 51 9A 73 29 9E 39 9A D5 A7 96 D3 65 9D 58 BA 61 DA
DPCM : 46 AA 3C 52 B1 A5 66 63 8D 31 E0 E5 95 2A CC B2 9C AC AB 39 66 A7 4B 99 5A 6A CC AB 8B 55 A6 A6
DPCM : 0D
DPCMDEF  10   321 "KickMaster_$C200.dmc"
DPCM : B5 70 05 FF F0 0F FF 00 F0 0F B8 5F F0 F0 7F F5 00 0F 00 07 84 B0 00 50 07 A8 0F F0 AB 05 0F FF
DPCM : F5 4F FF FF 7F FF FF F7 8F 4F F7 F0 0A AF 48 0B 84 00 80 00 00 00 00 0A 0B 00 00 A8 40 A0 44 55
DPCM : 55 55 B7 AB F5 AB F7 AB FF 7B FF F5 FF FB BB BF 0F FF FF 5F FF 78 F7 F0 7A 74 07 57 A4 8A 40 85
DPCM : 40 0A 80 50 08 05 0A 80 00 00 0A 08 A0 0A 80 50 04 74 04 0B 0F 0F AB 5B 75 57 5F F7 57 BF 7F 7B
DPCM : FF F5 7F 7F FA 7B BF 7B AF 57 F7 5B FA B5 7A F0 55 55 87 57 A8 5A 48 74 80 AB 00 55 40 07 A5 40
DPCM : 58 A8 40 0A 45 A8 50 84 05 55 84 40 45 8A 44 55 A8 85 B4 AA 44 0F 4F B5 4A BB 5A 57 AF 77 75 BB
DPCM : 75 B7 7B B7 77 AF 5F B7 77 B7 5B 5F BB 7A 57 BB 7A 75 F0 B5 54 55 B5 4A 45 85 A5 A8 44 A8 A8 50
DPCM : 88 4A A0 48 44 A8 04 85 0A 54 85 44 07 A5 8A 4A 45 47 47 74 74 74 58 75 45 5F F4 F4 78 47 75 F5
DPCM : BA A5 5F B5 7A 55 77 8F A7 55 57 57 74 BB 8A 5B 75 54 5A A5 AA 5A AA AA AA AA 8A AA 0B 55 4B 54
DPCM : 55 55 55 55 75 74 70 45 55 55 55 75 45 75 45 55 55 AA 8A 87 AA B4 54 4B 55 55 55 44 55 55 55 5A
DPCM : F0
DPCMDEF  11   513 "KickMaster_$C000.dmc"
DPCM : FA F8 70 B7 74 75 A8 87 0F 74 0A 87 50 0A F4 50 AA 44 F0 F8 74 74 F4 55 FA 5B 78 BB A8 4F 87 F5
DPCM : 50 B7 A0 07 07 8B 0F A5 05 B5 0B F4 4A 05 F0 70 F5 0F F0 FF FF F5 0F 0F 0F 00 00 00 00 00 A0 00
DPCM : F7 0F FF FF FF F5 FF FF FF FF FF FF 00 00 B0 00 00 00 00 00 00 00 00 A0 F0 B0 FF FF FF FF FF FF
DPCM : FF FF FF 8F FF F0 00 00 07 0F 00 00 00 00 00 00 00 0F BF FF FF FF FF FF FF 5F FF FF FB B0 F0 50
DPCM : 00 00 00 00 00 00 00 00 00 F0 00 FF FF FF FF FF FF FF FB F0 FF FB F0 A0 08 F0 00 00 0A 00 00 00
DPCM : 0F 00 8F F0 F0 7F 0F FF FF 0B BF FF FF F0 F0 F7 F0 07 0F F8 00 0A 00 0F 07 40 A0 00 00 0F 4F F5
DPCM : 0F F0 FF F0 FF 5F FF F0 F5 F7 F7 50 FF 40 F0 F0 00 F0 00 00 00 0F 0A F0 00 F0 0F 0F 4F AF FA F8
DPCM : FF FF F0 F0 FF 8F 0F FF 00 0F 0F 08 0F F0 00 00 04 F0 0F 70 0B FF 80 FA B0 0F 0F FF 4B FF F8 F7
DPCM : F4 AF 0F AF F0 00 0F 0F 00 F0 B0 00 05 08 0F 0A 8F F0 F4 F0 F0 F5 47 0F FF FB 5F 4F 0F AF 0F 0B
DPCM : FB B0 00 04 F0 F0 70 F0 B0 00 87 0F 0F 0F 8A A7 0F 87 FF F0 A7 F0 FB F0 F0 0F 0F 0F 8F F0 F0 F0
DPCM : 00 0F 7B 08 F0 F0 50 0F 0F A0 0A 0F 8F 0F BF F0 7A F8 8F 5F 55 F5 F0 F4 55 04 AF 4F 80 0F 0F B0
DPCM : 00 FF 00 80 0F F7 0F 0F 5A F0 75 0B 0F 07 5F 0F 74 0F 8F 0F AF FB 70 FB 50 0F 0F 57 40 0F 0F 00
DPCM : A4 0F 0F F0 00 FF F0 F0 F0 F0 F0 F0 F0 0F F7 50 FF 0F F0 07 FF 00 FA F0 A8 7F F4 00 0F F0 F0 F0
DPCM : 00 F0 00 7F A0 B8 0F F0 4F 0F 5F 4B F5 8B BB FA F0 0F F0 0F 0F 0F F0 F0 F0 0A 00 8F 0F 8F 08 0F
DPCM : 0F 0F 07 BF F0 F0 F0 F0 50 B7 F0 87 07 AF BA 7B F0 F0 F0 F7 40 4F 55 F0 F4 40 AA F0 00 85 0F 04
DPCM : 8F F0 F8 84 F7 07 4B 5F AF AF F0 A5 0F 5A 0F 4F 4B F0 F0 F0 A0 B8 04 55 0F 78 55 F0 F0 F4 F0 F0
DPCM : B5
DPCMDEF  12   913 "SkateOrDie2_$FC00.dmc"
DPCM : FF AA A3 0F D4 07 55 DC FF 01 F8 00 AC FF 01 00 FF 83 0F 3E F8 E0 83 AF FF FF FF FF AF 3F 00 00
DPCM : 00 00 00 00 00 00 00 00 00 E0 FF FF FF FF FF FF FF FF FF FF FF 0F 1E 00 00 00 00 00 00 00 00 00
DPCM : 00 00 00 FC FF FF FF FF FF FF FF FF FF FF FF FF 47 00 00 00 00 00 00 00 00 00 00 00 00 00 FE FF
DPCM : FF FF FF FF FF FF FF FF FF FF FF FF FF FF 07 08 00 00 00 00 00 00 00 00 00 00 00 00 00 00 00 A0
DPCM : FF FF FF FF FF FF FF FF FF FF FF FF FF FF FF FF 3F 00 00 00 00 00 00 00 00 00 00 00 00 00 00 C0
DPCM : 5F A0 FF FF 9F FF F0 FF FF FF 87 F7 FF FF FF 57 E0 FF BF 1F 80 E0 03 00 00 A8 00 00 F0 29 00 40
DPCM : 5C 00 FE 07 E0 BF 5F FE 7F FF AF FF 3F 78 6F 7C 40 3E 00 00 00 00 3E 00 00 5C 50 00 A0 E0 7F 0F
DPCM : 16 F8 E0 FF 7F FF AF 1F FC BF FF FF 0A FC AF FF FF 6F FC 0F FE 57 0F FC 0F 40 00 0B 00 00 00 00
DPCM : 00 00 00 00 00 00 00 00 00 00 00 00 F0 FF FF FF FF FF FF FF FF FF FF FF FF FF FF FF FF FF FF FF
DPCM : 0F 2A 00 1F 00 00 00 00 00 00 00 2A 00 00 28 70 C1 07 1F 00 F0 EB 07 FF 03 F0 29 50 08 AC 0F 3E
DPCM : 00 A8 7F 0F 00 F8 F4 BF FF FF FF FF FF FF FF FF FF FF FF FF FF FF 83 80 FE 07 00 00 00 00 00 00
DPCM : 00 00 00 00 00 00 00 2A 00 0B 5C 5F 29 00 7F FF 0F 1E 58 1F 7C BF D7 AF AA FF FF D1 FF F4 AB FF
DPCM : FF FF 6F 7C B0 EF 07 E0 83 F0 15 A8 A0 03 A0 D5 07 00 7C 80 90 AF 0A 7C 80 C1 07 1F 7C 00 AA 07
DPCM : 15 2C 00 DE 07 0F D0 8F 01 A8 4F A8 0F 3E F8 E0 83 4F D4 FF E8 DF 0F FE FF EB FF FF EB A7 9F BE
DPCM : FF 01 F8 1F A8 A5 14 00 1F 00 80 A0 07 00 3C 40 E0 07 F4 2B F0 C1 87 1F 00 F0 2B A8 40 3C 80 A9
DPCM : 07 F5 2B 50 FE 07 FF 5F F0 EB FF EB AB 5F D6 7F 4F BC AF 29 F8 AA 43 70 BE 07 E0 03 00 1E F8 08
DPCM : 2C F0 C1 07 54 A0 5F 40 F8 1F C0 4F 90 57 0B FC 4F D4 5F 94 2F B0 3F F8 E8 83 AF C1 5F E0 A3 0F
DPCM : 96 AF E0 D3 0F 2A F8 EA 2B 50 54 B8 15 2C F0 01 80 9F 03 F0 51 F8 E0 83 0F AA AF E0 AB 0F EA BF
DPCM : B7 7F F0 EB 5F FF 83 F0 6F 58 FF 03 F0 01 58 15 2C 80 14 F8 00 DC 0F AA 07 A8 53 A0 1F F8 00 FC
DPCM : 0F 2A 58 AA A3 0F 7E 87 0A 7C 4F D0 A7 E0 83 5F EA A7 F0 A3 0F FE A7 F0 D3 8F 95 47 4F A8 AF 2F
DPCM : A8 A0 D3 0F 54 F8 E8 AB 0F EA 07 50 7C 50 D6 07 A8 83 0B 2A A8 0F A0 0F E0 07 1F D4 0F 80 AF B4
DPCM : 23 B0 57 58 EA AB 0F EA 57 6A FC AF C1 57 FF C3 7F E8 57 55 FC AF 41 F8 1F 7C B0 11 A0 6A 2C 80
DPCM : 14 A0 0F 40 50 28 A8 0F D0 4F A0 AF AA D3 0F 3E F8 F5 57 F0 6F 78 F7 43 F0 D5 47 E8 83 0A AA 07
DPCM : E8 83 0F 2A A8 1F 7C A5 D5 57 9F 5F F0 AF 87 FF A3 0F 90 BD E0 83 A0 81 50 AA 03 00 EA 07 A0 83
DPCM : 0F 80 87 EA 83 4F 3E F8 5F FC 5F EE BF 95 D3 5F D0 7F 55 54 70 E8 07 15 54 70 A8 07 A8 23 B0 2F
DPCM : A8 50 7C 07 1E B8 95 A3 AF A9 07 0B FC 0F D6 5F E8 83 4F D6 87 17 FC 0F 2A B8 4B D0 7F 80 B8 B4
DPCM : 03 F0 2F 50 4B BC 0F 90 47 EA 2B F0 57 B8 AF C3 0F 6A B8 17 DC 0F A8 07 17 54 50 3E 50 1F AC 0F
DPCM : 50 B8 6A AC 0F 6A F8 EB 83 5F D4 AF F5 03 F0 2F F8 B4 23 B0 95 07 4B DC 0F E0 47 F4 83 0B 3E F8
DPCM : 4A BC 0F 6A 78 AA A3 0F D4 87 90 57 80 2F A8 AA 83
DPCMDEF  13  1009 "SkateOrDie2_$F800.dmc"
DPCM : 00 EF 5F 00 00 00 00 FF FF FF FF FF FF 00 00 00 00 00 FC 3F 00 00 00 F0 FF FF FF FF 3F 00 00 00
DPCM : 00 FC C0 0F 00 00 00 00 C0 FF FF FF FF FF FF FF FF C0 FF 53 00 00 00 00 00 00 00 F0 03 FF FF FF
DPCM : FF FF FF FF FF FF FF 0F 00 00 00 00 00 00 00 00 00 00 C0 FF FF FF FF FF FF FF FF 3F 00 00 00 00
DPCM : 00 00 00 00 FF 0F 00 FF FF FF FF FF FF FF FF FF 00 00 00 00 00 00 00 00 00 3F F0 FF FF FF FF FF
DPCM : FF FF FF 0F 00 00 00 00 00 00 00 C0 FF FF FF FF FF FF FF FF 15 F0 43 3F 00 00 00 00 00 00 00 FC
DPCM : C0 FF FF FF FF FF FF FF 5F 3F 00 FC 00 F0 03 C0 0F 00 00 50 FC C0 BF FF FF FF 03 FF FF 57 FF 0F
DPCM : 00 00 00 00 C0 FF 03 00 F0 03 00 00 FC FF FF FF FF FF 03 3F 00 00 3F 00 00 3F 00 00 3F F0 FF 00
DPCM : F0 53 3F F0 FF FF FF 03 00 F0 03 EB FF 03 00 F0 FF FF FF 03 C0 0F 00 3F F0 AF 00 00 00 FF 5F FC
DPCM : D5 0F FC 00 F0 FF 2F 00 FC C0 FF 53 3F 00 00 FF FF AF 00 F0 FF 00 F0 03 FF FF 03 3F 00 00 00 00
DPCM : FC 00 00 00 40 F0 FF C0 FF FF 3F F0 FF FF FF 03 00 00 00 3F F0 03 C0 FF 03 D0 FF 03 3F F0 03 D4
DPCM : FF FF FF FF 03 10 00 FC 3F 00 00 C0 0F 00 3F 00 A0 00 F0 FF FF FF 03 FF 0F FC 3F F0 03 3F 00 00
DPCM : C0 0F 00 DF 0F FC 3F F0 03 FF FF FF C0 0F FC C0 0F FC 00 00 00 00 F0 03 FF 0F FC C0 FF FF 3F F0
DPCM : 03 FF 0F 00 C0 FF 03 3F 00 00 FF FF 03 C0 FF 03 C0 0F FC 3F F0 03 FF FF 03 3F 00 FC FF 0F 00 00
DPCM : 50 00 40 F0 03 BF FF FF 3F 00 BC C0 0F FC 7F 00 00 3F 00 00 FF FF FF 00 00 00 3F F0 AB FF FF FF
DPCM : FF FF 53 C0 0F 00 00 70 A8 00 00 FC 3F 00 FC FF 0F 00 FF 0F 50 FF 0F 00 C0 0F FC FF FF FF C0 0F
DPCM : 40 00 00 00 C0 FF 03 00 F0 FF FF FF FF C0 FF 03 FF 0F FC 3F 00 00 00 00 00 C0 0F FC 3F F0 03 3F
DPCM : F0 FF FF 5F FC D0 0F 00 C0 FF 03 40 40 FC 00 F0 03 1F F0 FF 3F F0 FF FF FF FF 2F 00 00 00 00 FC
DPCM : 3F 00 00 3F 00 FC 00 F0 FF FF FF 03 3F F0 FF D7 FF 03 3F 00 00 00 00 54 00 00 00 FF FF FF FF FF
DPCM : FF FF FF 03 3F 00 00 14 00 BC 00 00 00 C0 0F FC 15 00 FC FF FF FF 3F F0 FF 3F F0 03 C0 0F 00 00
DPCM : 00 50 C0 0F 00 FF BF FF FF FF FF C0 FF FF 2F 00 FC 00 00 00 2B 00 00 00 F0 03 D4 FF FF FF FF FF
DPCM : FF FF 03 15 00 00 00 00 00 00 00 00 FF FF 7F C0 FF FF FF FF FF FF FF 03 00 00 00 00 F0 03 00 F0
DPCM : FF EA 0F FC C0 FF 03 FF FF 03 D4 FF 03 00 F0 03 00 B0 03 3F 00 A0 EA 0F FC FF FF 03 FF FF 03 3F
DPCM : 00 FC C0 0F FC 00 00 50 00 F0 7F 14 F0 FF FF FF 03 FF 0F FC 00 00 FC 00 A0 A3 C0 FF 03 DF 0F 5C
DPCM : 00 F0 A3 3F 80 FF FF 0F FC 54 A0 AB 17 F0 03 00 F0 5F 28 00 FC FF 8F 03 FF 7F 7C C0 0F 00 3F F0
DPCM : AF 20 F0 03 BF FF A3 00 00 FC C0 0F FC 2A F0 7F 3F 00 FC 3F B0 03 17 F0 AB 3F A0 A3 2A A0 BF 3F
DPCM : 00 00 FF AF 5F 40 00 FC 3F F0 FF 20 F0 03 BF 0F 00 C0 AF 57 D4 0F FC E0 0F 00 E0 4F FC 2B F0 FF
DPCM : E8 0F 5C EF 0F 00 6A F0 03 2F 00 AC E8 0F FC E0 FF 03 AF 0F AC C0 FF 53 C0 FF 03 40 F0 FF 00 B0
DPCM : AF 80 0F A0 EA FF A3 C0 AF A3 AA 0F 5C 2F 40 54 5F F0 53 2A F0 AB 2F 00 BC EF 0F A0 EF AF 03 10
DPCM : F0 5F AA 0F A0 BF 0F 00 14 F0 7F D0 5F BC AA 0F 50 EA 8F A3 2F 40 FC 14 A0 5F 3F 00 FC AF 0F AC
DPCM : 14 B0 BF 1F 00 7C D5 8F A3 2A F0 AB 68 80 43 FF 0F 5C E0 8F AB 28 40 FC 3F F0 AB AA 0F 54 28 F0
DPCM : BF 6A 40 FC 15 B0 A3 BF 0F 54 AB 0F AC AA 0F AC D0 8F 43 E8 8F 43 C0 5F 80 7F B5 A3 D0 0F 54 AF
DPCM : 0F A8 D5 0F 54 AA 0F 54 1F 70 AC D4 AF A3 AA 0F AC
DPCMDEF  14   449 "Abadox_$C1C0.dmc"
DPCM : FE FF DE FF E3 EF 8C 44 34 12 53 21 32 33 1C 21 00 23 00 20 00 12 03 00 FE EF DF F7 DE 7F FF FF
DPCM : FF 67 EE FF FF DD FF FF 21 50 23 32 10 21 30 80 C3 30 20 12 03 12 10 00 DF E7 DC FF BF DF BB FF
DPCM : CF DE FF EC FF CD FE FF 10 00 12 02 80 98 A2 00 02 32 00 10 A0 00 21 00 EC FE DF FD CF EC BD DC
DPCM : BE DF FE FB DE FF BE DE 1D 1E 7D 9E 7F E7 EF 3F 7F 3F 87 DC 63 18 73 0C 23 18 88 53 11 06 0D 62
DPCM : 03 3C 33 24 E7 7C AE F3 E7 1F F8 F0 F3 CF 71 AE 1C 8E CF 08 CE 0C CC 18 31 C2 40 E1 8E 18 2C D1
DPCM : 91 ED 9F 0F CF A7 3C FF 93 C7 CC F5 38 39 B8 19 47 88 46 D6 04 76 31 85 1C 58 63 9C 61 79 8C F3
DPCM : 98 F7 78 27 C7 9F 64 77 39 0F 8C F5 86 2F 91 8C 71 C7 21 E1 C4 19 8C 41 66 07 A6 2E 8A E7 43 CF
DPCM : 9E 1F 9E 71 F3 E3 B7 18 FC 63 C3 18 C3 B0 E0 E3 0F 08 E0 71 8C C1 8F 19 C3 39 39 99 F1 BC 74 76
DPCM : E2 F3 C7 97 19 E3 63 39 87 C6 37 0F 09 C6 71 23 88 E0 A9 83 8B 19 87 66 71 8C EF 0D DA F4 73 EE
DPCM : 1C DB 8E 76 1A 39 0E 71 C6 2E 31 C3 9C 59 07 A1 C0 F1 19 9C 58 CE 2E 2D 6E 3C E3 39 E3 8E B8 E7
DPCM : 1C E3 A7 0D 8E 47 94 B7 05 C2 39 E6 26 36 19 8C 74 98 CD 47 38 59 E8 D3 53 B8 F2 6E AC B3 B4 E5
DPCM : 71 27 8E 8C 8F 1A 3C 8A 73 8E 1C 6B 29 8E 1C 2C 68 D9 31 E3 55 47 39 AB 2D 97 38 D3 B1 CE 38 F1
DPCM : D4 B3 4E A9 62 AD 54 B2 38 C9 A8 AC A9 18 E6 51 9A 73 29 9E 39 9A D5 A7 96 D3 65 9D 58 BA 61 DA
DPCM : 46 AA 3C 52 B1 A5 66 63 8D 31 E0 E5 95 2A CC B2 9C AC AB 39 66 A7 4B 99 5A 6A CC AB 8B 55 A6 A6
DPCM : 0D
DPCMDEF  15   321 "KickMaster_$C200.dmc"
DPCM : B5 70 05 FF F0 0F FF 00 F0 0F B8 5F F0 F0 7F F5 00 0F 00 07 84 B0 00 50 07 A8 0F F0 AB 05 0F FF
DPCM : F5 4F FF FF 7F FF FF F7 8F 4F F7 F0 0A AF 48 0B 84 00 80 00 00 00 00 0A 0B 00 00 A8 40 A0 44 55
DPCM : 55 55 B7 AB F5 AB F7 AB FF 7B FF F5 FF FB BB BF 0F FF FF 5F FF 78 F7 F0 7A 74 07 57 A4 8A 40 85
DPCM : 40 0A 80 50 08 05 0A 80 00 00 0A 08 A0 0A 80 50 04 74 04 0B 0F 0F AB 5B 75 57 5F F7 57 BF 7F 7B
DPCM : FF F5 7F 7F FA 7B BF 7B AF 57 F7 5B FA B5 7A F0 55 55 87 57 A8 5A 48 74 80 AB 00 55 40 07 A5 40
DPCM : 58 A8 40 0A 45 A8 50 84 05 55 84 40 45 8A 44 55 A8 85 B4 AA 44 0F 4F B5 4A BB 5A 57 AF 77 75 BB
DPCM : 75 B7 7B B7 77 AF 5F B7 77 B7 5B 5F BB 7A 57 BB 7A 75 F0 B5 54 55 B5 4A 45 85 A5 A8 44 A8 A8 50
DPCM : 88 4A A0 48 44 A8 04 85 0A 54 85 44 07 A5 8A 4A 45 47 47 74 74 74 58 75 45 5F F4 F4 78 47 75 F5
DPCM : BA A5 5F B5 7A 55 77 8F A7 55 57 57 74 BB 8A 5B 75 54 5A A5 AA 5A AA AA AA AA 8A AA 0B 55 4B 54
DPCM : 55 55 55 55 75 74 70 45 55 55 55 75 45 75 45 55 55 AA 8A 87 AA B4 54 4B 55 55 55 44 55 55 55 5A
DPCM : F0
DPCMDEF  16   513 "KickMaster_$C000.dmc"
DPCM : FA F8 70 B7 74 75 A8 87 0F 74 0A 87 50 0A F4 50 AA 44 F0 F8 74 74 F4 55 FA 5B 78 BB A8 4F 87 F5
DPCM : 50 B7 A0 07 07 8B 0F A5 05 B5 0B F4 4A 05 F0 70 F5 0F F0 FF FF F5 0F 0F 0F 00 00 00 00 00 A0 00
DPCM : F7 0F FF FF FF F5 FF FF FF FF FF FF 00 00 B0 00 00 00 00 00 00 00 00 A0 F0 B0 FF FF FF FF FF FF
DPCM : FF FF FF 8F FF F0 00 00 07 0F 00 00 00 00 00 00 00 0F BF FF FF FF FF FF FF 5F FF FF FB B0 F0 50
DPCM : 00 00 00 00 00 00 00 00 00 F0 00 FF FF FF FF FF FF FF FB F0 FF FB F0 A0 08 F0 00 00 0A 00 00 00
DPCM : 0F 00 8F F0 F0 7F 0F FF FF 0B BF FF FF F0 F0 F7 F0 07 0F F8 00 0A 00 0F 07 40 A0 00 00 0F 4F F5
DPCM : 0F F0 FF F0 FF 5F FF F0 F5 F7 F7 50 FF 40 F0 F0 00 F0 00 00 00 0F 0A F0 00 F0 0F 0F 4F AF FA F8
DPCM : FF FF F0 F0 FF 8F 0F FF 00 0F 0F 08 0F F0 00 00 04 F0 0F 70 0B FF 80 FA B0 0F 0F FF 4B FF F8 F7
DPCM : F4 AF 0F AF F0 00 0F 0F 00 F0 B0 00 05 08 0F 0A 8F F0 F4 F0 F0 F5 47 0F FF FB 5F 4F 0F AF 0F 0B
DPCM : FB B0 00 04 F0 F0 70 F0 B0 00 87 0F 0F 0F 8A A7 0F 87 FF F0 A7 F0 FB F0 F0 0F 0F 0F 8F F0 F0 F0
DPCM : 00 0F 7B 08 F0 F0 50 0F 0F A0 0A 0F 8F 0F BF F0 7A F8 8F 5F 55 F5 F0 F4 55 04 AF 4F 80 0F 0F B0
DPCM : 00 FF 00 80 0F F7 0F 0F 5A F0 75 0B 0F 07 5F 0F 74 0F 8F 0F AF FB 70 FB 50 0F 0F 57 40 0F 0F 00
DPCM : A4 0F 0F F0 00 FF F0 F0 F0 F0 F0 F0 F0 0F F7 50 FF 0F F0 07 FF 00 FA F0 A8 7F F4 00 0F F0 F0 F0
DPCM : 00 F0 00 7F A0 B8 0F F0 4F 0F 5F 4B F5 8B BB FA F0 0F F0 0F 0F 0F F0 F0 F0 0A 00 8F 0F 8F 08 0F
DPCM : 0F 0F 07 BF F0 F0 F0 F0 50 B7 F0 87 07 AF BA 7B F0 F0 F0 F7 40 4F 55 F0 F4 40 AA F0 00 85 0F 04
DPCM : 8F F0 F8 84 F7 07 4B 5F AF AF F0 A5 0F 5A 0F 4F 4B F0 F0 F0 A0 B8 04 55 0F 78 55 F0 F0 F4 F0 F0
DPCM : B5
DPCMDEF  17   913 "SkateOrDie2_$FC00.dmc"
DPCM : FF AA A3 0F D4 07 55 DC FF 01 F8 00 AC FF 01 00 FF 83 0F 3E F8 E0 83 AF FF FF FF FF AF 3F 00 00
DPCM : 00 00 00 00 00 00 00 00 00 E0 FF FF FF FF FF FF FF FF FF FF FF 0F 1E 00 00 00 00 00 00 00 00 00
DPCM : 00 00 00 FC FF FF FF FF FF FF FF FF FF FF FF FF 47 00 00 00 00 00 00 00 00 00 00 00 00 00 FE FF
DPCM : FF FF FF FF FF FF FF FF FF FF FF FF FF FF 07 08 00 00 00 00 00 00 00 00 00 00 00 00 00 00 00 A0
DPCM : FF FF FF FF FF FF FF FF FF FF FF FF FF FF FF FF 3F 00 00 00 00 00 00 00 00 00 00 00 00 00 00 C0
DPCM : 5F A0 FF FF 9F FF F0 FF FF FF 87 F7 FF FF FF 57 E0 FF BF 1F 80 E0 03 00 00 A8 00 00 F0 29 00 40
DPCM : 5C 00 FE 07 E0 BF 5F FE 7F FF AF FF 3F 78 6F 7C 40 3E 00 00 00 00 3E 00 00 5C 50 00 A0 E0 7F 0F
DPCM : 16 F8 E0 FF 7F FF AF 1F FC BF FF FF 0A FC AF FF FF 6F FC 0F FE 57 0F FC 0F 40 00 0B 00 00 00 00
DPCM : 00 00 00 00 00 00 00 00 00 00 00 00 F0 FF FF FF FF FF FF FF FF FF FF FF FF FF FF FF FF FF FF FF
DPCM : 0F 2A 00 1F 00 00 00 00 00 00 00 2A 00 00 28 70 C1 07 1F 00 F0 EB 07 FF 03 F0 29 50 08 AC 0F 3E
DPCM : 00 A8 7F 0F 00 F8 F4 BF FF FF FF FF FF FF FF FF FF FF FF FF FF FF 83 80 FE 07 00 00 00 00 00 00
DPCM : 00 00 00 00 00 00 00 2A 00 0B 5C 5F 29 00 7F FF 0F 1E 58 1F 7C BF D7 AF AA FF FF D1 FF F4 AB FF
DPCM : FF FF 6F 7C B0 EF 07 E0 83 F0 15 A8 A0 03 A0 D5 07 00 7C 80 90 AF 0A 7C 80 C1 07 1F 7C 00 AA 07
DPCM : 15 2C 00 DE 07 0F D0 8F 01 A8 4F A8 0F 3E F8 E0 83 4F D4 FF E8 DF 0F FE FF EB FF FF EB A7 9F BE
DPCM : FF 01 F8 1F A8 A5 14 00 1F 00 80 A0 07 00 3C 40 E0 07 F4 2B F0 C1 87 1F 00 F0 2B A8 40 3C 80 A9
DPCM : 07 F5 2B 50 FE 07 FF 5F F0 EB FF EB AB 5F D6 7F 4F BC AF 29 F8 AA 43 70 BE 07 E0 03 00 1E F8 08
DPCM : 2C F0 C1 07 54 A0 5F 40 F8 1F C0 4F 90 57 0B FC 4F D4 5F 94 2F B0 3F F8 E8 83 AF C1 5F E0 A3 0F
DPCM : 96 AF E0 D3 0F 2A F8 EA 2B 50 54 B8 15 2C F0 01 80 9F 03 F0 51 F8 E0 83 0F AA AF E0 AB 0F EA BF
DPCM : B7 7F F0 EB 5F FF 83 F0 6F 58 FF 03 F0 01 58 15 2C 80 14 F8 00 DC 0F AA 07 A8 53 A0 1F F8 00 FC
DPCM : 0F 2A 58 AA A3 0F 7E 87 0A 7C 4F D0 A7 E0 83 5F EA A7 F0 A3 0F FE A7 F0 D3 8F 95 47 4F A8 AF 2F
DPCM : A8 A0 D3 0F 54 F8 E8 AB 0F EA 07 50 7C 50 D6 07 A8 83 0B 2A A8 0F A0 0F E0 07 1F D4 0F 80 AF B4
DPCM : 23 B0 57 58 EA AB 0F EA 57 6A FC AF C1 57 FF C3 7F E8 57 55 FC AF 41 F8 1F 7C B0 11 A0 6A 2C 80
DPCM : 14 A0 0F 40 50 28 A8 0F D0 4F A0 AF AA D3 0F 3E F8 F5 57 F0 6F 78 F7 43 F0 D5 47 E8 83 0A AA 07
DPCM : E8 83 0F 2A A8 1F 7C A5 D5 57 9F 5F F0 AF 87 FF A3 0F 90 BD E0 83 A0 81 50 AA 03 00 EA 07 A0 83
DPCM : 0F 80 87 EA 83 4F 3E F8 5F FC 5F EE BF 95 D3 5F D0 7F 55 54 70 E8 07 15 54 70 A8 07 A8 23 B0 2F
DPCM : A8 50 7C 07 1E B8 95 A3 AF A9 07 0B FC 0F D6 5F E8 83 4F D6 87 17 FC 0F 2A B8 4B D0 7F 80 B8 B4
DPCM : 03 F0 2F 50 4B BC 0F 90 47 EA 2B F0 57 B8 AF C3 0F 6A B8 17 DC 0F A8 07 17 54 50 3E 50 1F AC 0F
DPCM : 50 B8 6A AC 0F 6A F8 EB 83 5F D4 AF F5 03 F0 2F F8 B4 23 B0 95 07 4B DC 0F E0 47 F4 83 0B 3E F8
DPCM : 4A BC 0F 6A 78 AA A3 0F D4 87 90 57 80 2F A8 AA 83
DPCMDEF  18  1009 "SkateOrDie2_$F800.dmc"
DPCM : 00 EF 5F 00 00 00 00 FF FF FF FF FF FF 00 00 00 00 00 FC 3F 00 00 00 F0 FF FF FF FF 3F 00 00 00
DPCM : 00 FC C0 0F 00 00 00 00 C0 FF FF FF FF FF FF FF FF C0 FF 53 00 00 00 00 00 00 00 F0 03 FF FF FF
DPCM : FF FF FF FF FF FF FF 0F 00 00 00 00 00 00 00 00 00 00 C0 FF FF FF FF FF FF FF FF 3F 00 00 00 00
DPCM : 00 00 00 00 FF 0F 00 FF FF FF FF FF FF FF FF FF 00 00 00 00 00 00 00 00 00 3F F0 FF FF FF FF FF
DPCM : FF FF FF 0F 00 00 00 00 00 00 00 C0 FF FF FF FF FF FF FF FF 15 F0 43 3F 00 00 00 00 00 00 00 FC
DPCM : C0 FF FF FF FF FF FF FF 5F 3F 00 FC 00 F0 03 C0 0F 00 00 50 FC C0 BF FF FF FF 03 FF FF 57 FF 0F
DPCM : 00 00 00 00 C0 FF 03 00 F0 03 00 00 FC FF FF FF FF FF 03 3F 00 00 3F 00 00 3F 00 00 3F F0 FF 00
DPCM : F0 53 3F F0 FF FF FF 03 00 F0 03 EB FF 03 00 F0 FF FF FF 03 C0 0F 00 3F F0 AF 00 00 00 FF 5F FC
DPCM : D5 0F FC 00 F0 FF 2F 00 FC C0 FF 53 3F 00 00 FF FF AF 00 F0 FF 00 F0 03 FF FF 03 3F 00 00 00 00
DPCM : FC 00 00 00 40 F0 FF C0 FF FF 3F F0 FF FF FF 03 00 00 00 3F F0 03 C0 FF 03 D0 FF 03 3F F0 03 D4
DPCM : FF FF FF FF 03 10 00 FC 3F 00 00 C0 0F 00 3F 00 A0 00 F0 FF FF FF 03 FF 0F FC 3F F0 03 3F 00 00
DPCM : C0 0F 00 DF 0F FC 3F F0 03 FF FF FF C0 0F FC C0 0F FC 00 00 00 00 F0 03 FF 0F FC C0 FF FF 3F F0
DPCM : 03 FF 0F 00 C0 FF 03 3F 00 00 FF FF 03 C0 FF 03 C0 0F FC 3F F0 03 FF FF 03 3F 00 FC FF 0F 00 00
DPCM : 50 00 40 F0 03 BF FF FF 3F 00 BC C0 0F FC 7F 00 00 3F 00 00 FF FF FF 00 00 00 3F F0 AB FF FF FF
DPCM : FF FF 53 C0 0F 00 00 70 A8 00 00 FC 3F 00 FC FF 0F 00 FF 0F 50 FF 0F 00 C0 0F FC FF FF FF C0 0F
DPCM : 40 00 00 00 C0 FF 03 00 F0 FF FF FF FF C0 FF 03 FF 0F FC 3F 00 00 00 00 00 C0 0F FC 3F F0 03 3F
DPCM : F0 FF FF 5F FC D0 0F 00 C0 FF 03 40 40 FC 00 F0 03 1F F0 FF 3F F0 FF FF FF FF 2F 00 00 00 00 FC
DPCM : 3F 00 00 3F 00 FC 00 F0 FF FF FF 03 3F F0 FF D7 FF 03 3F 00 00 00 00 54 00 00 00 FF FF FF FF FF
DPCM : FF FF FF 03 3F 00 00 14 00 BC 00 00 00 C0 0F FC 15 00 FC FF FF FF 3F F0 FF 3F F0 03 C0 0F 00 00
DPCM : 00 50 C0 0F 00 FF BF FF FF FF FF C0 FF FF 2F 00 FC 00 00 00 2B 00 00 00 F0 03 D4 FF FF FF FF FF
DPCM : FF FF 03 15 00 00 00 00 00 00 00 00 FF FF 7F C0 FF FF FF FF FF FF FF 03 00 00 00 00 F0 03 00 F0
DPCM : FF EA 0F FC C0 FF 03 FF FF 03 D4 FF 03 00 F0 03 00 B0 03 3F 00 A0 EA 0F FC FF FF 03 FF FF 03 3F
DPCM : 00 FC C0 0F FC 00 00 50 00 F0 7F 14 F0 FF FF FF 03 FF 0F FC 00 00 FC 00 A0 A3 C0 FF 03 DF 0F 5C
DPCM : 00 F0 A3 3F 80 FF FF 0F FC 54 A0 AB 17 F0 03 00 F0 5F 28 00 FC FF 8F 03 FF 7F 7C C0 0F 00 3F F0
DPCM : AF 20 F0 03 BF FF A3 00 00 FC C0 0F FC 2A F0 7F 3F 00 FC 3F B0 03 17 F0 AB 3F A0 A3 2A A0 BF 3F
DPCM : 00 00 FF AF 5F 40 00 FC 3F F0 FF 20 F0 03 BF 0F 00 C0 AF 57 D4 0F FC E0 0F 00 E0 4F FC 2B F0 FF
DPCM : E8 0F 5C EF 0F 00 6A F0 03 2F 00 AC E8 0F FC E0 FF 03 AF 0F AC C0 FF 53 C0 FF 03 40 F0 FF 00 B0
DPCM : AF 80 0F A0 EA FF A3 C0 AF A3 AA 0F 5C 2F 40 54 5F F0 53 2A F0 AB 2F 00 BC EF 0F A0 EF AF 03 10
DPCM : F0 5F AA 0F A0 BF 0F 00 14 F0 7F D0 5F BC AA 0F 50 EA 8F A3 2F 40 FC 14 A0 5F 3F 00 FC AF 0F AC
DPCM : 14 B0 BF 1F 00 7C D5 8F A3 2A F0 AB 68 80 43 FF 0F 5C E0 8F AB 28 40 FC 3F F0 AB AA 0F 54 28 F0
DPCM : BF 6A 40 FC 15 B0 A3 BF 0F 54 AB 0F AC AA 0F AC D0 8F 43 E8 8F 43 C0 5F 80 7F B5 A3 D0 0F 54 AF
DPCM : 0F A8 D5 0F 54 AA 0F 54 1F 70 AC D4 AF A3 AA 0F AC

# Instruments
INST2A03   0     1  -1  -1  -1   7 "Pulse1a"
INST2A03   1     2   1  -1  -1   2 "Pulse1a (Lead)"
INST2A03   2     3   4  -1  -1   5 "Pulse2a (Bass)"
INST2A03   3     4  -1  -1  -1  -1 "Noisea (HiHat A)"
INST2A03   4     5  13  -1  -1  -1 "Noiseb (Bass C)"
INST2A03   5     6  -1  -1  -1  -1 "Noisec (Snare F)"
INST2A03   7     8  -1  -1  -1  -1 "Noisea (HiHat A)"
INST2A03   8     9  -1  -1  -1  -1 "Noiseb (Bass C#)"
INST2A03   9    10  -1  -1  -1  -1 "Noisec (Snare F)"
INST2A03  10    11  -1   1  -1  -1 "Triangleb (Tom)"
INST2A03  13    12  10  -1  -1  -1 "Triangleb"
INST2A03  16     0  -1  -1  -1   1 "Lead"
INST2A03  17     0  -1  -1   3  -1 "Triangle Kick"
INST2A03  18    17   2  -1  -1  -1 "Crash"

# Tracks

TRACK  64   9 150 "Inevitable Doom - celestialghost8"
COLUMNS : 1 1 1 1 1

ORDER 00 : 00 00 00 00 00
ORDER 01 : 00 00 00 00 00
ORDER 02 : 00 01 00 00 00
ORDER 03 : 00 02 00 00 00
ORDER 04 : 00 00 00 00 00
ORDER 05 : 00 03 00 00 00
ORDER 06 : 00 04 00 00 00
ORDER 07 : 00 05 00 00 00

PATTERN 00
ROW 00 : C-1 10 . ... : C-2 10 . ... : E-5 11 . ... : ... .. . ... : ... .. . ...
ROW 01 : --- .. . ... : --- .. . ... : --- .. . ... : ... .. . ... : ... .. . ...
ROW 02 : C-1 10 . ... : C-2 10 . ... : E-5 11 . ... : ... .. . ... : ... .. . ...
ROW 03 : --- .. . ... : --- .. . ... : --- .. . ... : ... .. . ... : ... .. . ...
ROW 04 : ... .. . ... : ... .. . ... : ... .. . ... : ... .. . ... : ... .. . ...
ROW 05 : ... .. . ... : ... .. . ... : ... .. . ... : ... .. . ... : ... .. . ...
ROW 06 : C-1 10 . ... : C-2 10 . ... : E-5 11 . ... : ... .. . ... : ... .. . ...
ROW 07 : --- .. . ... : --- .. . ... : --- .. . ... : ... .. . ... : ... .. . ...
ROW 08 : C-1 10 . ... : C-2 10 . ... : E-5 11 . ... : ... .. . ... : ... .. . ...
ROW 09 : --- .. . ... : --- .. . ... : --- .. . ... : ... .. . ... : ... .. . ...
ROW 0A : ... .. . ... : ... .. . ... : ... .. . ... : ... .. . ... : ... .. . ...
ROW 0B : ... .. . ... : ... .. . ... : ... .. . ... : ... .. . ... : ... .. . ...
ROW 0C : ... .. . ... : ... .. . ... : ... .. . ... : 3-# 12 . ... : ... .. . ...
ROW 0D : ... .. . ... : ... .. . ... : ... .. . ... : ... .. . ... : ... .. . ...
ROW 0E : ... .. . ... : ... .. . ... : ... .. . ... : ... .. . ... : ... .. . ...
ROW 0F : ... .. . ... : ... .. . ... : ... .. . ... : ... .. . ... : ... .. . ...
ROW 10 : C-1 10 . ... : C-2 10 . ... : E-5 11 . ... : --- .. . ... : ... .. . ...
ROW 11 : --- .. . ... : --- .. . ... : --- .. . ... : ... .. . ... : ... .. . ...
ROW 12 : C-1 10 . ... : C-2 10 . ... : E-5 11 . ... : ... .. . ... : ... .. . ...
ROW 13 : --- .. . ... : --- .. . ... : --- .. . ... : ... .. . ... : ... .. . ...
ROW 14 : ... .. . ... : ... .. . ... : ... .. . ... : ... .. . ... : ... .. . ...
ROW 15 : ... .. . ... : ... .. . ... : ... .. . ... : ... .. . ... : ... .. . ...
ROW 16 : C-1 10 . ... : C-2 10 . ... : E-5 11 . ... : ... .. . ... : ... .. . ...
ROW 17 : --- .. . ... : --- .. . ... : --- .. . ... : ... .. . ... : ... .. . ...
ROW 18 : C-1 10 . ... : C-2 10 . ... : E-5 11 . ... : ... .. . ... : ... .. . ...
ROW 19 : --- .. . ... : --- .. . ... : --- .. . ... : ... .. . ... : ... .. . ...
ROW 1A : ... .. . ... : ... .. . ... : ... .. . ... : ... .. . ... : ... .. . ...
ROW 1B : ... .. . ... : ... .. . ... : ... .. . ... : ... .. . ... : ... .. . ...
ROW 1C : D#1 10 . ... : D#2 10 . ... : ... .. . ... : 3-# 12 . ... : ... .. . ...
ROW 1D : --- .. . ... : --- .. . ... : ... .. . ... : ... .. . ... : ... .. . ...
ROW 1E : ... .. . ... : ... .. . ... : ... .. . ... : 3-# 12 . ... : ... .. . ...
ROW 1F : ... .. . ... : ... .. . ... : ... .. . ... : ... .. . ... : ... .. . ...
ROW 20 : C-1 10 . ... : C-2 10 . ... : E-5 11 . ... : --- .. . ... : ... .. . ...
ROW 21 : --- .. . ... : --- .. . ... : --- .. . ... : ... .. . ... : ... .. . ...
ROW 22 : C-1 10 . ... : C-2 10 . ... : E-5 11 . ... : ... .. . ... : ... .. . ...
ROW 23 : --- .. . ... : --- .. . ... : --- .. . ... : ... .. . ... : ... .. . ...
ROW 24 : ... .. . ... : ... .. . ... : ... .. . ... : ... .. . ... : ... .. . ...
ROW 25 : ... .. . ... : ... .. . ... : ... .. . ... : ... .. . ... : ... .. . ...
ROW 26 : C-1 10 . ... : C-2 10 . ... : E-5 11 . ... : ... .. . ... : ... .. . ...
ROW 27 : --- .. . ... : --- .. . ... : --- .. . ... : ... .. . ... : ... .. . ...
ROW 28 : C-1 10 . ... : C-2 10 . ... : E-5 11 . ... : ... .. . ... : ... .. . ...
ROW 29 : --- .. . ... : --- .. . ... : --- .. . ... : ... .. . ... : ... .. . ...
ROW 2A : ... .. . ... : ... .. . ... : ... .. . ... : ... .. . ... : ... .. . ...
ROW 2B : ... .. . ... : ... .. . ... : ... .. . ... : ... .. . ... : ... .. . ...
ROW 2C : ... .. . ... : ... .. . ... : ... .. . ... : 3-# 12 . ... : ... .. . ...
ROW 2D : ... .. . ... : ... .. . ... : ... .. . ... : ... .. . ... : ... .. . ...
ROW 2E : ... .. . ... : ... .. . ... : ... .. . ... : ... .. . ... : ... .. . ...
ROW 2F : ... .. . ... : ... .. . ... : ... .. . ... : ... .. . ... : ... .. . ...
ROW 30 : C-1 10 . ... : C-2 10 . ... : E-5 11 . ... : --- .. . ... : ... .. . ...
ROW 31 : --- .. . ... : --- .. . ... : --- .. . ... : ... .. . ... : ... .. . ...
ROW 32 : C-1 10 . ... : C-2 10 . ... : E-5 11 . ... : ... .. . ... : ... .. . ...
ROW 33 : --- .. . ... : --- .. . ... : --- .. . ... : ... .. . ... : ... .. . ...
ROW 34 : ... .. . ... : ... .. . ... : ... .. . ... : ... .. . ... : ... .. . ...
ROW 35 : ... .. . ... : ... .. . ... : ... .. . ... : ... .. . ... : ... .. . ...
ROW 36 : C-1 10 . ... : C-2 10 . ... : E-5 11 . ... : ... .. . ... : ... .. . ...
ROW 37 : --- .. . ... : --- .. . ... : --- .. . ... : ... .. . ... : ... .. . ...
ROW 38 : C-1 10 . ... : C-2 10 . ... : E-5 11 . ... : ... .. . ... : ... .. . ...
ROW 39 : --- .. . ... : --- .. . ... : --- .. . ... : ... .. . ... : ... .. . ...
ROW 3A : ... .. . ... : ... .. . ... : ... .. . ... : ... .. . ... : ... .. . ...
ROW 3B : ... .. . ... : ... .. . ... : ... .. . ... : ... .. . ... : ... .. . ...
ROW 3C : D#1 10 . ... : D#2 10 . ... : ... .. . ... : 3-# 12 . ... : ... .. . ...
ROW 3D : --- .. . ... : --- .. . ... : ... .. . ... : ... .. . ... : ... .. . ...
ROW 3E : D#1 10 . ... : D#2 10 . ... : ... .. . ... : 3-# 12 . ... : ... .. . ...
ROW 3F : ... .. . ... : ... .. . ... : ... .. . ... : ... .. . ... : ... .. . ...

PATTERN 01
ROW 00 : ... .. . ... : D#2 10 . 463 : ... .. . ... : ... .. . ... : ... .. . ...
ROW 01 : ... .. . ... : ... .. . ... : ... .. . ... : ... .. . ... : ... .. . ...
ROW 02 : ... .. . ... : ... .. . ... : ... .. . ... : ... .. . ... : ... .. . ...
ROW 03 : ... .. . ... : ... .. . ... : ... .. . ... : ... .. . ... : ... .. . ...
ROW 04 : ... .. . ... : ... .. . ... : ... .. . ... : ... .. . ... : ... .. . ...
ROW 05 : ... .. . ... : ... .. . ... : ... .. . ... : ... .. . ... : ... .. . ...
ROW 06 : ... .. . ... : ... .. . ... : ... .. . ... : ... .. . ... : ... .. . ...
ROW 07 : ... .. . ... : ... .. . ... : ... .. . ... : ... .. . ... : ... .. . ...
ROW 08 : ... .. . ... : ... .. . ... : ... .. . ... : ... .. . ... : ... .. . ...
ROW 09 : ... .. . ... : ... .. . ... : ... .. . ... : ... .. . ... : ... .. . ...
ROW 0A : ... .. . ... : ... .. . ... : ... .. . ... : ... .. . ... : ... .. . ...
ROW 0B : ... .. . ... : ... .. . ... : ... .. . ... : ... .. . ... : ... .. . ...
ROW 0C : ... .. . ... : D-2 10 . ... : ... .. . ... : ... .. . ... : ... .. . ...
ROW 0D : ... .. . ... : ... .. . ... : ... .. . ... : ... .. . ... : ... .. . ...
ROW 0E : ... .. . ... : ... .. . ... : ... .. . ... : ... .. . ... : ... .. . ...
ROW 0F : ... .. . ... : ... .. . ... : ... .. . ... : ... .. . ... : ... .. . ...
ROW 10 : ... .. . ... : C-2 10 . ... : ... .. . ... : ... .. . ... : ... .. . ...
ROW 11 : ... .. . ... : ... .. . ... : ... .. . ... : ... .. . ... : ... .. . ...
ROW 12 : ... .. . ... : ... .. . ... : ... .. . ... : ... .. . ... : ... .. . ...
ROW 13 : ... .. . ... : ... .. . ... : ... .. . ... : ... .. . ... : ... .. . ...
ROW 14 : ... .. . ... : ... .. . ... : ... .. . ... : ... .. . ... : ... .. . ...
ROW 15 : ... .. . ... : ... .. . ... : ... .. . ... : ... .. . ... : ... .. . ...
ROW 16 : ... .. . ... : ... .. . ... : ... .. . ... : ... .. . ... : ... .. . ...
ROW 17 : ... .. . ... : ... .. . ... : ... .. . ... : ... .. . ... : ... .. . ...
ROW 18 : ... .. . ... : ... .. . ... : ... .. . ... : ... .. . ... : ... .. . ...
ROW 19 : ... .. . ... : ... .. . ... : ... .. . ... : ... .. . ... : ... .. . ...
ROW 1A : ... .. . ... : ... .. . ... : ... .. . ... : ... .. . ... : ... .. . ...
ROW 1B : ... .. . ... : ... .. . ... : ... .. . ... : ... .. . ... : ... .. . ...
ROW 1C : ... .. . ... : ... .. . ... : ... .. . ... : ... .. . ... : ... .. . ...
ROW 1D : ... .. . ... : ... .. . ... : ... .. . ... : ... .. . ... : ... .. . ...
ROW 1E : ... .. . ... : ... .. . ... : ... .. . ... : ... .. . ... : ... .. . ...
ROW 1F : ... .. . ... : --- .. . ... : ... .. . ... : ... .. . ... : ... .. . ...
ROW 20 : ... .. . ... : C-2 10 . ... : ... .. . ... : ... .. . ... : ... .. . ...
ROW 21 : ... .. . ... : ... .. . ... : ... .. . ... : ... .. . ... : ... .. . ...
ROW 22 : ... .. . ... : D-2 10 . ... : ... .. . ... : ... .. . ... : ... .. . ...
ROW 23 : ... .. . ... : ... .. . ... : ... .. . ... : ... .. . ... : ... .. . ...
ROW 24 : ... .. . ... : D#2 10 . ... : ... .. . ... : ... .. . ... : ... .. . ...
ROW 25 : ... .. . ... : ... .. . ... : ... .. . ... : ... .. . ... : ... .. . ...
ROW 26 : ... .. . ... : ... .. . ... : ... .. . ... : ... .. . ... : ... .. . ...
ROW 27 : ... .. . ... : ... .. . ... : ... .. . ... : ... .. . ... : ... .. . ...
ROW 28 : ... .. . ... : D-2 10 . ... : ... .. . ... : ... .. . ... : ... .. . ...
ROW 29 : ... .. . ... : ... .. . ... : ... .. . ... : ... .. . ... : ... .. . ...
ROW 2A : ... .. . ... : ... .. . ... : ... .. . ... : ... .. . ... : ... .. . ...
ROW 2B : ... .. . ... : ... .. . ... : ... .. . ... : ... .. . ... : ... .. . ...
ROW 2C : ... .. . ... : D#2 10 . ... : ... .. . ... : ... .. . ... : ... .. . ...
ROW 2D : ... .. . ... : ... .. . ... : ... .. . ... : ... .. . ... : ... .. . ...
ROW 2E : ... .. . ... : D-2 10 . ... : ... .. . ... : ... .. . ... : ... .. . ...
ROW 2F : ... .. . ... : ... .. . ... : ... .. . ... : ... .. . ... : ... .. . ...
ROW 30 : ... .. . ... : C-2 10 . ... : ... .. . ... : ... .. . ... : ... .. . ...
ROW 31 : ... .. . ... : ... .. . ... : ... .. . ... : ... .. . ... : ... .. . ...
ROW 32 : ... .. . ... : ... .. . ... : ... .. . ... : ... .. . ... : ... .. . ...
ROW 33 : ... .. . ... : ... .. . ... : ... .. . ... : ... .. . ... : ... .. . ...
ROW 34 : ... .. . ... : ... .. . ... : ... .. . ... : ... .. . ... : ... .. . ...
ROW 35 : ... .. . ... : ... .. . ... : ... .. . ... : ... .. . ... : ... .. . ...
ROW 36 : ... .. . ... : ... .. . ... : ... .. . ... : ... .. . ... : ... .. . ...
ROW 37 : ... .. . ... : ... .. . ... : ... .. . ... : ... .. . ... : ... .. . ...
ROW 38 : ... .. . ... : ... .. . ... : ... .. . ... : ... .. . ... : ... .. . ...
ROW 39 : ... .. . ... : ... .. . ... : ... .. . ... : ... .. . ... : ... .. . ...
ROW 3A : ... .. . ... : ... .. . ... : ... .. . ... : ... .. . ... : ... .. . ...
ROW 3B : ... .. . ... : ... .. . ... : ... .. . ... : ... .. . ... : ... .. . ...
ROW 3C : ... .. . ... : ... .. . ... : ... .. . ... : ... .. . ... : ... .. . ...
ROW 3D : ... .. . ... : ... .. . ... : ... .. . ... : ... .. . ... : ... .. . ...
ROW 3E : ... .. . ... : ... .. . ... : ... .. . ... : ... .. . ... : ... .. . ...
ROW 3F : ... .. . ... : ... .. . ... : ... .. . ... : ... .. . ... : ... .. . ...

PATTERN 02
ROW 00 : ... .. . ... : G-2 10 . ... : ... .. . ... : ... .. . ... : ... .. . ...
ROW 01 : ... .. . ... : ... .. . ... : ... .. . ... : ... .. . ... : ... .. . ...
ROW 02 : ... .. . ... : ... .. . ... : ... .. . ... : ... .. . ... : ... .. . ...
ROW 03 : ... .. . ... : ... .. . ... : ... .. . ... : ... .. . ... : ... .. . ...
ROW 04 : ... .. . ... : ... .. . ... : ... .. . ... : ... .. . ... : ... .. . ...
ROW 05 : ... .. . ... : ... .. . ... : ... .. . ... : ... .. . ... : ... .. . ...
ROW 06 : ... .. . ... : ... .. . ... : ... .. . ... : ... .. . ... : ... .. . ...
ROW 07 : ... .. . ... : ... .. . ... : ... .. . ... : ... .. . ... : ... .. . ...
ROW 08 : ... .. . ... : ... .. . ... : ... .. . ... : ... .. . ... : ... .. . ...
ROW 09 : ... .. . ... : ... .. . ... : ... .. . ... : ... .. . ... : ... .. . ...
ROW 0A : ... .. . ... : ... .. . ... : ... .. . ... : ... .. . ... : ... .. . ...
ROW 0B : ... .. . ... : ... .. . ... : ... .. . ... : ... .. . ... : ... .. . ...
ROW 0C : ... .. . ... : F-2 10 . ... : ... .. . ... : ... .. . ... : ... .. . ...
ROW 0D : ... .. . ... : ... .. . ... : ... .. . ... : ... .. . ... : ... .. . ...
ROW 0E : ... .. . ... : ... .. . ... : ... .. . ... : ... .. . ... : ... .. . ...
ROW 0F : ... .. . ... : ... .. . ... : ... .. . ... : ... .. . ... : ... .. . ...
ROW 10 : ... .. . ... : D#2 10 . ... : ... .. . ... : ... .. . ... : ... .. . ...
ROW 11 : ... .. . ... : ... .. . ... : ... .. . ... : ... .. . ... : ... .. . ...
ROW 12 : ... .. . ... : ... .. . ... : ... .. . ... : ... .. . ... : ... .. . ...
ROW 13 : ... .. . ... : ... .. . ... : ... .. . ... : ... .. . ... : ... .. . ...
ROW 14 : ... .. . ... : ... .. . ... : ... .. . ... : ... .. . ... : ... .. . ...
ROW 15 : ... .. . ... : ... .. . ... : ... .. . ... : ... .. . ... : ... .. . ...
ROW 16 : ... .. . ... : ... .. . ... : ... .. . ... : ... .. . ... : ... .. . ...
ROW 17 : ... .. . ... : ... .. . ... : ... .. . ... : ... .. . ... : ... .. . ...
ROW 18 : ... .. . ... : ... .. . ... : ... .. . ... : ... .. . ... : ... .. . ...
ROW 19 : ... .. . ... : ... .. . ... : ... .. . ... : ... .. . ... : ... .. . ...
ROW 1A : ... .. . ... : ... .. . ... : ... .. . ... : ... .. . ... : ... .. . ...
ROW 1B : ... .. . ... : ... .. . ... : ... .. . ... : ... .. . ... : ... .. . ...
ROW 1C : ... .. . ... : C-2 10 . ... : ... .. . ... : ... .. . ... : ... .. . ...
ROW 1D : ... .. . ... : ... .. . ... : ... .. . ... : ... .. . ... : ... .. . ...
ROW 1E : ... .. . ... : D-2 10 . ... : ... .. . ... : ... .. . ... : ... .. . ...
ROW 1F : ... .. . ... : ... .. . ... : ... .. . ... : ... .. . ... : ... .. . ...
ROW 20 : ... .. . ... : D#2 10 . ... : ... .. . ... : ... .. . ... : ... .. . ...
ROW 21 : ... .. . ... : ... .. . ... : ... .. . ... : ... .. . ... : ... .. . ...
ROW 22 : ... .. . ... : ... .. . ... : ... .. . ... : ... .. . ... : ... .. . ...
ROW 23 : ... .. . ... : ... .. . ... : ... .. . ... : ... .. . ... : ... .. . ...
ROW 24 : ... .. . ... : ... .. . ... : ... .. . ... : ... .. . ... : ... .. . ...
ROW 25 : ... .. . ... : ... .. . ... : ... .. . ... : ... .. . ... : ... .. . ...
ROW 26 : ... .. . ... : ... .. . ... : ... .. . ... : ... .. . ... : ... .. . ...
ROW 27 : ... .. . ... : ... .. . ... : ... .. . ... : ... .. . ... : ... .. . ...
ROW 28 : ... .. . ... : D-2 10 . ... : ... .. . ... : ... .. . ... : ... .. . ...
ROW 29 : ... .. . ... : ... .. . ... : ... .. . ... : ... .. . ... : ... .. . ...
ROW 2A : ... .. . ... : ... .. . ... : ... .. . ... : ... .. . ... : ... .. . ...
ROW 2B : ... .. . ... : ... .. . ... : ... .. . ... : ... .. . ... : ... .. . ...
ROW 2C : ... .. . ... : ... .. . ... : ... .. . ... : ... .. . ... : ... .. . ...
ROW 2D : ... .. . ... : --- .. . ... : ... .. . ... : ... .. . ... : ... .. . ...
ROW 2E : ... .. . ... : D-2 10 . ... : ... .. . ... : ... .. . ... : ... .. . ...
ROW 2F : ... .. . ... : D#2 10 . ... : ... .. . ... : ... .. . ... : ... .. . ...
ROW 30 : ... .. . ... : C-2 10 . ... : ... .. . ... : ... .. . ... : ... .. . ...
ROW 31 : ... .. . ... : ... .. . ... : ... .. . ... : ... .. . ... : ... .. . ...
ROW 32 : ... .. . ... : ... .. . ... : ... .. . ... : ... .. . ... : ... .. . ...
ROW 33 : ... .. . ... : ... .. . ... : ... .. . ... : ... .. . ... : ... .. . ...
ROW 34 : ... .. . ... : ... .. . ... : ... .. . ... : ... .. . ... : ... .. . ...
ROW 35 : ... .. . ... : ... .. . ... : ... .. . ... : ... .. . ... : ... .. . ...
ROW 36 : ... .. . ... : ... .. . ... : ... .. . ... : ... .. . ... : ... .. . ...
ROW 37 : ... .. . ... : ... .. . ... : ... .. . ... : ... .. . ... : ... .. . ...
ROW 38 : ... .. . ... : ... .. . ... : ... .. . ... : ... .. . ... : ... .. . ...
ROW 39 : ... .. . ... : ... .. . ... : ... .. . ... : ... .. . ... : ... .. . ...
ROW 3A : ... .. . ... : ... .. . ... : ... .. . ... : ... .. . ... : ... .. . ...
ROW 3B : ... .. . ... : ... .. . ... : ... .. . ... : ... .. . ... : ... .. . ...
ROW 3C : ... .. . ... : ... .. . ... : ... .. . ... : ... .. . ... : ... .. . ...
ROW 3D : ... .. . ... : ... .. . ... : ... .. . ... : ... .. . ... : ... .. . ...
ROW 3E : ... .. . ... : ... .. . ... : ... .. . ... : ... .. . ... : ... .. . ...
ROW 3F : ... .. . ... : ... .. . ... : ... .. . ... : ... .. . ... : ... .. . ...

PATTERN 03
ROW 00 : ... .. . ... : D#2 10 . ... : ... .. . ... : ... .. . ... : ... .. . ...
ROW 01 : ... .. . ... : D-2 10 . ... : ... .. . ... : ... .. . ... : ... .. . ...
ROW 02 : ... .. . ... : D#2 10 . ... : ... .. . ... : ... .. . ... : ... .. . ...
ROW 03 : ... .. . ... : ... .. . ... : ... .. . ... : ... .. . ... : ... .. . ...
ROW 04 : ... .. . ... : ... .. . ... : ... .. . ... : ... .. . ... : ... .. . ...
ROW 05 : ... .. . ... : ... .. . ... : ... .. . ... : ... .. . ... : ... .. . ...
ROW 06 : ... .. . ... : D-2 10 . ... : ... .. . ... : ... .. . ... : ... .. . ...
ROW 07 : ... .. . ... : D#2 10 . ... : ... .. . ... : ... .. . ... : ... .. . ...
ROW 08 : ... .. . ... : D-2 10 . ... : ... .. . ... : ... .. . ... : ... .. . ...
ROW 09 : ... .. . ... : ... .. . ... : ... .. . ... : ... .. . ... : ... .. . ...
ROW 0A : ... .. . ... : ... .. . ... : ... .. . ... : ... .. . ... : ... .. . ...
ROW 0B : ... .. . ... : ... .. . ... : ... .. . ... : ... .. . ... : ... .. . ...
ROW 0C : ... .. . ... : ... .. . ... : ... .. . ... : ... .. . ... : ... .. . ...
ROW 0D : ... .. . ... : ... .. . ... : ... .. . ... : ... .. . ... : ... .. . ...
ROW 0E : ... .. . ... : ... .. . ... : ... .. . ... : ... .. . ... : ... .. . ...
ROW 0F : ... .. . ... : ... .. . ... : ... .. . ... : ... .. . ... : ... .. . ...
ROW 10 : ... .. . ... : C-2 10 . ... : ... .. . ... : ... .. . ... : ... .. . ...
ROW 11 : ... .. . ... : A#1 10 . ... : ... .. . ... : ... .. . ... : ... .. . ...
ROW 12 : ... .. . ... : C-2 10 . ... : ... .. . ... : ... .. . ... : ... .. . ...
ROW 13 : ... .. . ... : ... .. . ... : ... .. . ... : ... .. . ... : ... .. . ...
ROW 14 : ... .. . ... : ... .. . ... : ... .. . ... : ... .. . ... : ... .. . ...
ROW 15 : ... .. . ... : ... .. . ... : ... .. . ... : ... .. . ... : ... .. . ...
ROW 16 : ... .. . ... : ... .. . ... : ... .. . ... : ... .. . ... : ... .. . ...
ROW 17 : ... .. . ... : ... .. . ... : ... .. . ... : ... .. . ... : ... .. . ...
ROW 18 : ... .. . ... : ... .. . ... : ... .. . ... : ... .. . ... : ... .. . ...
ROW 19 : ... .. . ... : ... .. . ... : ... .. . ... : ... .. . ... : ... .. . ...
ROW 1A : ... .. . ... : ... .. . ... : ... .. . ... : ... .. . ... : ... .. . ...
ROW 1B : ... .. . ... : ... .. . ... : ... .. . ... : ... .. . ... : ... .. . ...
ROW 1C : ... .. . ... : ... .. . ... : ... .. . ... : ... .. . ... : ... .. . ...
ROW 1D : ... .. . ... : ... .. . ... : ... .. . ... : ... .. . ... : ... .. . ...
ROW 1E : ... .. . ... : ... .. . ... : ... .. . ... : ... .. . ... : ... .. . ...
ROW 1F : ... .. . ... : ... .. . ... : ... .. . ... : ... .. . ... : ... .. . ...
ROW 20 : ... .. . ... : C-2 10 . ... : ... .. . ... : ... .. . ... : ... .. . ...
ROW 21 : ... .. . ... : D-2 10 . ... : ... .. . ... : ... .. . ... : ... .. . ...
ROW 22 : ... .. . ... : D#2 10 . ... : ... .. . ... : ... .. . ... : ... .. . ...
ROW 23 : ... .. . ... : F-2 10 . ... : ... .. . ... : ... .. . ... : ... .. . ...
ROW 24 : ... .. . ... : D#2 10 . ... : ... .. . ... : ... .. . ... : ... .. . ...
ROW 25 : ... .. . ... : ... .. . ... : ... .. . ... : ... .. . ... : ... .. . ...
ROW 26 : ... .. . ... : D-2 10 . ... : ... .. . ... : ... .. . ... : ... .. . ...
ROW 27 : ... .. . ... : D#2 10 . ... : ... .. . ... : ... .. . ... : ... .. . ...
ROW 28 : ... .. . ... : F-2 10 . ... : ... .. . ... : ... .. . ... : ... .. . ...
ROW 29 : ... .. . ... : D#2 10 . ... : ... .. . ... : ... .. . ... : ... .. . ...
ROW 2A : ... .. . ... : F-2 10 . ... : ... .. . ... : ... .. . ... : ... .. . ...
ROW 2B : ... .. . ... : ... .. . ... : ... .. . ... : ... .. . ... : ... .. . ...
ROW 2C : ... .. . ... : D#2 10 . ... : ... .. . ... : ... .. . ... : ... .. . ...
ROW 2D : ... .. . ... : F-2 10 . ... : ... .. . ... : ... .. . ... : ... .. . ...
ROW 2E : ... .. . ... : G-2 10 . ... : ... .. . ... : ... .. . ... : ... .. . ...
ROW 2F : ... .. . ... : G#2 10 . ... : ... .. . ... : ... .. . ... : ... .. . ...
ROW 30 : ... .. . ... : G-2 10 . ... : ... .. . ... : ... .. . ... : ... .. . ...
ROW 31 : ... .. . ... : F#2 10 . ... : ... .. . ... : ... .. . ... : ... .. . ...
ROW 32 : ... .. . ... : G-2 10 . ... : ... .. . ... : ... .. . ... : ... .. . ...
ROW 33 : ... .. . ... : ... .. . ... : ... .. . ... : ... .. . ... : ... .. . ...
ROW 34 : ... .. . ... : ... .. . ... : ... .. . ... : ... .. . ... : ... .. . ...
ROW 35 : ... .. . ... : ... .. . ... : ... .. . ... : ... .. . ... : ... .. . ...
ROW 36 : ... .. . ... : ... .. . ... : ... .. . ... : ... .. . ... : ... .. . ...
ROW 37 : ... .. . ... : ... .. . ... : ... .. . ... : ... .. . ... : ... .. . ...
ROW 38 : ... .. . ... : ... .. . ... : ... .. . ... : ... .. . ... : ... .. . ...
ROW 39 : ... .. . ... : ... .. . ... : ... .. . ... : ... .. . ... : ... .. . ...
ROW 3A : ... .. . ... : ... .. . ... : ... .. . ... : ... .. . ... : ... .. . ...
ROW 3B : ... .. . ... : ... .. . ... : ... .. . ... : ... .. . ... : ... .. . ...
ROW 3C : ... .. . ... : ... .. . ... : ... .. . ... : ... .. . ... : ... .. . ...
ROW 3D : ... .. . ... : ... .. . ... : ... .. . ... : ... .. . ... : ... .. . ...
ROW 3E : ... .. . ... : ... .. . ... : ... .. . ... : ... .. . ... : ... .. . ...
ROW 3F : ... .. . ... : ... .. . ... : ... .. . ... : ... .. . ... : ... .. . ...

PATTERN 04
ROW 00 : ... .. . ... : C-3 10 . ... : ... .. . ... : ... .. . ... : ... .. . ...
ROW 01 : ... .. . ... : A#2 10 . ... : ... .. . ... : ... .. . ... : ... .. . ...
ROW 02 : ... .. . ... : C-3 10 . ... : ... .. . ... : ... .. . ... : ... .. . ...
ROW 03 : ... .. . ... : ... .. . ... : ... .. . ... : ... .. . ... : ... .. . ...
ROW 04 : ... .. . ... : ... .. . ... : ... .. . ... : ... .. . ... : ... .. . ...
ROW 05 : ... .. . ... : ... .. . ... : ... .. . ... : ... .. . ... : ... .. . ...
ROW 06 : ... .. . ... : G-2 10 . ... : ... .. . ... : ... .. . ... : ... .. . ...
ROW 07 : ... .. . ... : G#2 10 . ... : ... .. . ... : ... .. . ... : ... .. . ...
ROW 08 : ... .. . ... : G-2 10 . ... : ... .. . ... : ... .. . ... : ... .. . ...
ROW 09 : ... .. . ... : ... .. . ... : ... .. . ... : ... .. . ... : ... .. . ...
ROW 0A : ... .. . ... : ... .. . ... : ... .. . ... : ... .. . ... : ... .. . ...
ROW 0B : ... .. . ... : ... .. . ... : ... .. . ... : ... .. . ... : ... .. . ...
ROW 0C : ... .. . ... : ... .. . ... : ... .. . ... : ... .. . ... : ... .. . ...
ROW 0D : ... .. . ... : ... .. . ... : ... .. . ... : ... .. . ... : ... .. . ...
ROW 0E : ... .. . ... : ... .. . ... : ... .. . ... : ... .. . ... : ... .. . ...
ROW 0F : ... .. . ... : ... .. . ... : ... .. . ... : ... .. . ... : ... .. . ...
ROW 10 : ... .. . ... : F-2 10 . ... : ... .. . ... : ... .. . ... : ... .. . ...
ROW 11 : ... .. . ... : D#2 10 . ... : ... .. . ... : ... .. . ... : ... .. . ...
ROW 12 : ... .. . ... : G-2 10 . ... : ... .. . ... : ... .. . ... : ... .. . ...
ROW 13 : ... .. . ... : ... .. . ... : ... .. . ... : ... .. . ... : ... .. . ...
ROW 14 : ... .. . ... : ... .. . ... : ... .. . ... : ... .. . ... : ... .. . ...
ROW 15 : ... .. . ... : ... .. . ... : ... .. . ... : ... .. . ... : ... .. . ...
ROW 16 : ... .. . ... : ... .. . ... : ... .. . ... : ... .. . ... : ... .. . ...
ROW 17 : ... .. . ... : ... .. . ... : ... .. . ... : ... .. . ... : ... .. . ...
ROW 18 : ... .. . ... : ... .. . ... : ... .. . ... : ... .. . ... : ... .. . ...
ROW 19 : ... .. . ... : ... .. . ... : ... .. . ... : ... .. . ... : ... .. . ...
ROW 1A : ... .. . ... : ... .. . ... : ... .. . ... : ... .. . ... : ... .. . ...
ROW 1B : ... .. . ... : ... .. . ... : ... .. . ... : ... .. . ... : ... .. . ...
ROW 1C : ... .. . ... : ... .. . ... : ... .. . ... : ... .. . ... : ... .. . ...
ROW 1D : ... .. . ... : ... .. . ... : ... .. . ... : ... .. . ... : ... .. . ...
ROW 1E : ... .. . ... : ... .. . ... : ... .. . ... : ... .. . ... : ... .. . ...
ROW 1F : ... .. . ... : ... .. . ... : ... .. . ... : ... .. . ... : ... .. . ...
ROW 20 : ... .. . ... : F-2 10 . ... : ... .. . ... : ... .. . ... : ... .. . ...
ROW 21 : ... .. . ... : D#2 10 . ... : ... .. . ... : ... .. . ... : ... .. . ...
ROW 22 : ... .. . ... : F-2 10 . ... : ... .. . ... : ... .. . ... : ... .. . ...
ROW 23 : ... .. . ... : ... .. . ... : ... .. . ... : ... .. . ... : ... .. . ...
ROW 24 : ... .. . ... : ... .. . ... : ... .. . ... : ... .. . ... : ... .. . ...
ROW 25 : ... .. . ... : ... .. . ... : ... .. . ... : ... .. . ... : ... .. . ...
ROW 26 : ... .. . ... : D#2 10 . ... : ... .. . ... : ... .. . ... : ... .. . ...
ROW 27 : ... .. . ... : ... .. . ... : ... .. . ... : ... .. . ... : ... .. . ...
ROW 28 : ... .. . ... : ... .. . ... : ... .. . ... : ... .. . ... : ... .. . ...
ROW 29 : ... .. . ... : ... .. . ... : ... .. . ... : ... .. . ... : ... .. . ...
ROW 2A : ... .. . ... : D-2 10 . ... : ... .. . ... : ... .. . ... : ... .. . ...
ROW 2B : ... .. . ... : ... .. . ... : ... .. . ... : ... .. . ... : ... .. . ...
ROW 2C : ... .. . ... : D#2 10 . ... : ... .. . ... : ... .. . ... : ... .. . ...
ROW 2D : ... .. . ... : D-2 10 . ... : ... .. . ... : ... .. . ... : ... .. . ...
ROW 2E : ... .. . ... : C-2 10 . ... : ... .. . ... : ... .. . ... : ... .. . ...
ROW 2F : ... .. . ... : ... .. . ... : ... .. . ... : ... .. . ... : ... .. . ...
ROW 30 : ... .. . ... : A#1 10 . ... : ... .. . ... : ... .. . ... : ... .. . ...
ROW 31 : ... .. . ... : ... .. . ... : ... .. . ... : ... .. . ... : ... .. . ...
ROW 32 : ... .. . ... : C-2 10 . ... : ... .. . ... : ... .. . ... : ... .. . ...
ROW 33 : ... .. . ... : ... .. . ... : ... .. . ... : ... .. . ... : ... .. . ...
ROW 34 : ... .. . ... : ... .. . ... : ... .. . ... : ... .. . ... : ... .. . ...
ROW 35 : ... .. . ... : ... .. . ... : ... .. . ... : ... .. . ... : ... .. . ...
ROW 36 : ... .. . ... : ... .. . ... : ... .. . ... : ... .. . ... : ... .. . ...
ROW 37 : ... .. . ... : ... .. . ... : ... .. . ... : ... .. . ... : ... .. . ...
ROW 38 : ... .. . ... : ... .. . ... : ... .. . ... : ... .. . ... : ... .. . ...
ROW 39 : ... .. . ... : ... .. . ... : ... .. . ... : ... .. . ... : ... .. . ...
ROW 3A : ... .. . ... : ... .. . ... : ... .. . ... : ... .. . ... : ... .. . ...
ROW 3B : ... .. . ... : ... .. . ... : ... .. . ... : ... .. . ... : ... .. . ...
ROW 3C : ... .. . ... : ... .. . ... : ... .. . ... : ... .. . ... : ... .. . ...
ROW 3D : ... .. . ... : ... .. . ... : ... .. . ... : ... .. . ... : ... .. . ...
ROW 3E : ... .. . ... : ... .. . ... : ... .. . ... : ... .. . ... : ... .. . ...
ROW 3F : ... .. . ... : ... .. . ... : ... .. . ... : ... .. . ... : ... .. . ...

PATTERN 05
ROW 00 : ... .. . ... : C-3 10 . ... : ... .. . ... : ... .. . ... : ... .. . ...
ROW 01 : ... .. . ... : --- 10 . ... : ... .. . ... : ... .. . ... : ... .. . ...
ROW 02 : ... .. . ... : C-3 10 . ... : ... .. . ... : ... .. . ... : ... .. . ...
ROW 03 : ... .. . ... : ... .. . ... : ... .. . ... : ... .. . ... : ... .. . ...
ROW 04 : ... .. . ... : ... .. . ... : ... .. . ... : ... .. . ... : ... .. . ...
ROW 05 : ... .. . ... : ... .. . ... : ... .. . ... : ... .. . ... : ... .. . ...
ROW 06 : ... .. . ... : C-3 10 . ... : ... .. . ... : ... .. . ... : ... .. . ...
ROW 07 : ... .. . ... : --- .. . ... : ... .. . ... : ... .. . ... : ... .. . ...
ROW 08 : ... .. . ... : C-3 10 . ... : ... .. . ... : ... .. . ... : ... .. . ...
ROW 09 : ... .. . ... : ... .. . ... : ... .. . ... : ... .. . ... : ... .. . ...
ROW 0A : ... .. . ... : ... .. . ... : ... .. . ... : ... .. . ... : ... .. . ...
ROW 0B : ... .. . ... : ... .. . ... : ... .. . ... : ... .. . ... : ... .. . ...
ROW 0C : ... .. . ... : ... .. . ... : ... .. . ... : ... .. . ... : ... .. . ...
ROW 0D : ... .. . ... : ... .. . ... : ... .. . ... : ... .. . ... : ... .. . ...
ROW 0E : ... .. . ... : ... .. . ... : ... .. . ... : ... .. . ... : ... .. . ...
ROW 0F : ... .. . ... : ... .. . ... : ... .. . ... : ... .. . ... : ... .. . ...
ROW 10 : ... .. . ... : C-3 10 . ... : ... .. . ... : ... .. . ... : ... .. . ...
ROW 11 : ... .. . ... : --- .. . ... : ... .. . ... : ... .. . ... : ... .. . ...
ROW 12 : ... .. . ... : C-3 10 . ... : ... .. . ... : ... .. . ... : ... .. . ...
ROW 13 : ... .. . ... : ... .. . ... : ... .. . ... : ... .. . ... : ... .. . ...
ROW 14 : ... .. . ... : ... .. . ... : ... .. . ... : ... .. . ... : ... .. . ...
ROW 15 : ... .. . ... : ... .. . ... : ... .. . ... : ... .. . ... : ... .. . ...
ROW 16 : ... .. . ... : C-3 10 . ... : ... .. . ... : ... .. . ... : ... .. . ...
ROW 17 : ... .. . ... : --- .. . ... : ... .. . ... : ... .. . ... : ... .. . ...
ROW 18 : ... .. . ... : C-3 10 . ... : ... .. . ... : ... .. . ... : ... .. . ...
ROW 19 : ... .. . ... : ... .. . ... : ... .. . ... : ... .. . ... : ... .. . ...
ROW 1A : ... .. . ... : ... .. . ... : ... .. . ... : ... .. . ... : ... .. . ...
ROW 1B : ... .. . ... : ... .. . ... : ... .. . ... : ... .. . ... : ... .. . ...
ROW 1C : ... .. . ... : A#2 10 . ... : ... .. . ... : ... .. . ... : ... .. . ...
ROW 1D : ... .. . ... : --- .. . ... : ... .. . ... : ... .. . ... : ... .. . ...
ROW 1E : ... .. . ... : A#2 10 . ... : ... .. . ... : ... .. . ... : ... .. . ...
ROW 1F : ... .. . ... : A#2 10 . ... : ... .. . ... : ... .. . ... : ... .. . ...
ROW 20 : ... .. . ... : C-3 10 . ... : ... .. . ... : ... .. . ... : ... .. . ...
ROW 21 : ... .. . ... : --- .. . ... : ... .. . ... : ... .. . ... : ... .. . ...
ROW 22 : ... .. . ... : C-3 10 . ... : ... .. . ... : ... .. . ... : ... .. . ...
ROW 23 : ... .. . ... : ... .. . ... : ... .. . ... : ... .. . ... : ... .. . ...
ROW 24 : ... .. . ... : ... .. . ... : ... .. . ... : ... .. . ... : ... .. . ...
ROW 25 : ... .. . ... : ... .. . ... : ... .. . ... : ... .. . ... : ... .. . ...
ROW 26 : ... .. . ... : C-3 10 . ... : ... .. . ... : ... .. . ... : ... .. . ...
ROW 27 : ... .. . ... : --- .. . ... : ... .. . ... : ... .. . ... : ... .. . ...
ROW 28 : ... .. . ... : C-3 10 . ... : ... .. . ... : ... .. . ... : ... .. . ...
ROW 29 : ... .. . ... : ... .. . ... : ... .. . ... : ... .. . ... : ... .. . ...
ROW 2A : ... .. . ... : ... .. . ... : ... .. . ... : ... .. . ... : ... .. . ...
ROW 2B : ... .. . ... : ... .. . ... : ... .. . ... : ... .. . ... : ... .. . ...
ROW 2C : ... .. . ... : ... .. . ... : ... .. . ... : ... .. . ... : ... .. . ...
ROW 2D : ... .. . ... : ... .. . ... : ... .. . ... : ... .. . ... : ... .. . ...
ROW 2E : ... .. . ... : ... .. . ... : ... .. . ... : ... .. . ... : ... .. . ...
ROW 2F : ... .. . ... : ... .. . ... : ... .. . ... : ... .. . ... : ... .. . ...
ROW 30 : ... .. . ... : C-3 10 . ... : ... .. . ... : ... .. . ... : ... .. . ...
ROW 31 : ... .. . ... : --- .. . ... : ... .. . ... : ... .. . ... : ... .. . ...
ROW 32 : ... .. . ... : C-3 10 . ... : ... .. . ... : ... .. . ... : ... .. . ...
ROW 33 : ... .. . ... : ... .. . ... : ... .. . ... : ... .. . ... : ... .. . ...
ROW 34 : ... .. . ... : ... .. . ... : ... .. . ... : ... .. . ... : ... .. . ...
ROW 35 : ... .. . ... : ... .. . ... : ... .. . ... : ... .. . ... : ... .. . ...
ROW 36 : ... .. . ... : C-3 10 . ... : ... .. . ... : ... .. . ... : ... .. . ...
ROW 37 : ... .. . ... : --- .. . ... : ... .. . ... : ... .. . ... : ... .. . ...
ROW 38 : ... .. . ... : C-3 10 . ... : ... .. . ... : ... .. . ... : ... .. . ...
ROW 39 : ... .. . ... : ... .. . ... : ... .. . ... : ... .. . ... : ... .. . ...
ROW 3A : ... .. . ... : ... .. . ... : ... .. . ... : ... .. . ... : ... .. . ...
ROW 3B : ... .. . ... : ... .. . ... : ... .. . ... : ... .. . ... : ... .. . ...
ROW 3C : ... .. . ... : G-2 10 . ... : ... .. . ... : ... .. . ... : ... .. . ...
ROW 3D : ... .. . ... : G#2 10 . ... : ... .. . ... : ... .. . ... : ... .. . ...
ROW 3E : ... .. . ... : D-2 10 . ... : ... .. . ... : ... .. . ... : ... .. . ...
ROW 3F : ... .. . ... : D#2 10 . ... : ... .. . ... : ... .. . ... : ... .. . ...

TRACK  76   3 150 "upbeat -  Phillip Miller"
COLUMNS : 1 1 1 1 1

ORDER 00 : 00 00 00 00 00
ORDER 01 : 01 01 01 01 00
ORDER 02 : 00 00 00 00 00
ORDER 03 : 01 01 01 02 00
ORDER 04 : 00 00 02 03 00
ORDER 05 : 01 01 04 03 00
ORDER 06 : 00 00 02 03 00
ORDER 07 : 01 01 03 04 00
ORDER 08 : 00 00 02 00 00
ORDER 09 : 01 01 03 01 00
ORDER 0A : 00 00 02 00 00
ORDER 0B : 01 01 03 02 00

PATTERN 00
ROW 00 : E-3 00 C ... : G-3 00 C ... : F-2 0D . ... : 0-# 04 A ... : ... .. . ...
ROW 01 : ... .. . ... : ... .. . ... : ... .. . ... : ... .. . ... : ... .. . ...
ROW 02 : ... .. . ... : ... .. . ... : ... .. . ... : ... .. . ... : ... .. . ...
ROW 03 : ... .. . ... : ... .. . ... : ... .. . ... : ... .. . ... : ... .. . ...
ROW 04 : ... .. 2 ... : ... .. 2 ... : ... .. . ... : D-# 03 . ... : ... .. . ...
ROW 05 : ... .. 1 ... : ... .. 1 ... : ... .. . ... : ... .. . ... : ... .. . ...
ROW 06 : --- .. . ... : --- .. . ... : ... .. . ... : ... .. . ... : ... .. . ...
ROW 07 : ... .. . ... : ... .. . ... : ... .. . ... : ... .. . ... : ... .. . ...
ROW 08 : ... .. . ... : ... .. . ... : A-2 0D . ... : 9-# 05 . ... : ... .. . ...
ROW 09 : ... .. . ... : ... .. . ... : ... .. . ... : ... .. . ... : ... .. . ...
ROW 0A : ... .. . ... : ... .. . ... : ... .. . ... : ... .. . ... : ... .. . ...
ROW 0B : ... .. . ... : ... .. . ... : ... .. . ... : ... .. . ... : ... .. . ...
ROW 0C : ... .. . ... : ... .. . ... : C-3 0D . ... : 1-# 04 . ... : ... .. . ...
ROW 0D : ... .. . ... : ... .. . ... : ... .. . ... : ... .. . ... : ... .. . ...
ROW 0E : ... .. . ... : ... .. . ... : ... .. . ... : 9-# 05 A ... : ... .. . ...
ROW 0F : ... .. . ... : ... .. . ... : ... .. . ... : ... .. 3 ... : ... .. . ...
ROW 10 : ... .. . ... : ... .. . ... : B-2 0D . ... : D-# 03 A ... : ... .. . ...
ROW 11 : ... .. . ... : ... .. . ... : ... .. . ... : ... .. 3 ... : ... .. . ...
ROW 12 : ... .. . ... : ... .. . ... : ... .. . ... : 1-# 04 A ... : ... .. . ...
ROW 13 : ... .. . ... : ... .. . ... : ... .. . ... : ... .. 3 ... : ... .. . ...
ROW 14 : C#3 00 C ... : E-3 00 C ... : F#2 0D . ... : 0-# 04 A ... : ... .. . ...
ROW 15 : ... .. . ... : ... .. . ... : ... .. . ... : ... .. . ... : ... .. . ...
ROW 16 : ... .. . ... : ... .. . ... : ... .. . ... : ... .. . ... : ... .. . ...
ROW 17 : ... .. . ... : ... .. . ... : ... .. . ... : ... .. . ... : ... .. . ...
ROW 18 : ... .. 2 ... : ... .. 2 ... : ... .. . ... : D-# 03 . ... : ... .. . ...
ROW 19 : ... .. 1 ... : ... .. 1 ... : ... .. . ... : ... .. . ... : ... .. . ...
ROW 1A : --- .. . ... : --- .. . ... : ... .. . ... : ... .. . ... : ... .. . ...
ROW 1B : ... .. . ... : ... .. . ... : ... .. . ... : ... .. . ... : ... .. . ...
ROW 1C : ... .. . ... : ... .. . ... : F#2 0D . ... : 9-# 05 . ... : ... .. . ...
ROW 1D : ... .. . ... : ... .. . ... : ... .. . ... : ... .. . ... : ... .. . ...
ROW 1E : ... .. . ... : ... .. . ... : ... .. . ... : ... .. . ... : ... .. . ...
ROW 1F : ... .. . ... : ... .. . ... : ... .. . ... : ... .. . ... : ... .. . ...
ROW 20 : ... .. . ... : ... .. . ... : B-2 0D . ... : 1-# 04 . ... : ... .. . ...
ROW 21 : ... .. . ... : ... .. . ... : ... .. . ... : ... .. . ... : ... .. . ...
ROW 22 : ... .. . ... : ... .. . ... : ... .. . ... : ... .. . ... : ... .. . ...
ROW 23 : ... .. . ... : ... .. . ... : ... .. . ... : ... .. . ... : ... .. . ...
ROW 24 : ... .. . ... : ... .. . ... : A-2 0D . ... : D-# 03 . ... : ... .. . ...
ROW 25 : ... .. . ... : ... .. . ... : ... .. . ... : ... .. . ... : ... .. . ...
ROW 26 : ... .. . ... : ... .. . ... : ... .. . ... : ... .. . ... : ... .. . ...
ROW 27 : ... .. . ... : ... .. . ... : ... .. . ... : ... .. . ... : ... .. . ...
ROW 28 : D#3 00 C ... : F#3 00 C ... : E-2 0D . ... : 0-# 04 A ... : ... .. . ...
ROW 29 : ... .. . ... : ... .. . ... : ... .. . ... : ... .. . ... : ... .. . ...
ROW 2A : ... .. . ... : ... .. . ... : ... .. . ... : ... .. . ... : ... .. . ...
ROW 2B : ... .. . ... : ... .. . ... : ... .. . ... : ... .. . ... : ... .. . ...
ROW 2C : ... .. 2 ... : ... .. 2 ... : ... .. . ... : D-# 03 . ... : ... .. . ...
ROW 2D : ... .. 1 ... : ... .. 1 ... : ... .. . ... : ... .. . ... : ... .. . ...
ROW 2E : --- .. . ... : --- .. . ... : ... .. . ... : 1-# 04 6 ... : ... .. . ...
ROW 2F : ... .. . ... : ... .. . ... : ... .. . ... : ... .. . ... : ... .. . ...
ROW 30 : ... .. . ... : ... .. . ... : G#2 0D . ... : 9-# 05 A ... : ... .. . ...
ROW 31 : ... .. . ... : ... .. . ... : ... .. . ... : ... .. . ... : ... .. . ...
ROW 32 : ... .. . ... : ... .. . ... : ... .. . ... : ... .. . ... : ... .. . ...
ROW 33 : ... .. . ... : ... .. . ... : ... .. . ... : ... .. . ... : ... .. . ...
ROW 34 : ... .. . ... : ... .. . ... : B-2 0D . ... : 1-# 04 . ... : ... .. . ...
ROW 35 : ... .. . ... : ... .. . ... : ... .. . ... : ... .. . ... : ... .. . ...
ROW 36 : ... .. . ... : ... .. . ... : ... .. . ... : 9-# 05 A ... : ... .. . ...
ROW 37 : ... .. . ... : ... .. . ... : ... .. . ... : ... .. 3 ... : ... .. . ...
ROW 38 : ... .. . ... : ... .. . ... : A#2 0D . ... : D-# 03 A ... : ... .. . ...
ROW 39 : ... .. . ... : ... .. . ... : ... .. . ... : ... .. . ... : ... .. . ...
ROW 3A : ... .. . ... : ... .. . ... : ... .. . ... : 1-# 04 6 ... : ... .. . ...
ROW 3B : ... .. . ... : ... .. . ... : ... .. . ... : ... .. 2 ... : ... .. . ...
ROW 3C : ... .. . ... : ... .. . ... : A-2 0D . ... : 0-# 04 A ... : ... .. . ...
ROW 3D : ... .. . ... : ... .. . ... : ... .. . ... : ... .. . ... : ... .. . ...
ROW 3E : ... .. . ... : ... .. . ... : ... .. . ... : ... .. . ... : ... .. . ...
ROW 3F : ... .. . ... : ... .. . ... : ... .. . ... : ... .. . ... : ... .. . ...
ROW 40 : ... .. . ... : ... .. . ... : ... .. . ... : D-# 03 . ... : ... .. . ...
ROW 41 : ... .. . ... : ... .. . ... : ... .. . ... : ... .. . ... : ... .. . ...
ROW 42 : ... .. . ... : ... .. . ... : ... .. . ... : 9-# 05 . ... : ... .. . ...
ROW 43 : ... .. . ... : ... .. . ... : ... .. . ... : ... .. . ... : ... .. . ...
ROW 44 : ... .. . ... : ... .. . ... : B-2 0D . ... : 0-# 04 . ... : ... .. . ...
ROW 45 : ... .. . ... : ... .. . ... : ... .. . ... : ... .. . ... : ... .. . ...
ROW 46 : ... .. . ... : ... .. . ... : ... .. . ... : 1-# 04 . ... : ... .. . ...
ROW 47 : ... .. . ... : ... .. . ... : ... .. . ... : ... .. . ... : ... .. . ...
ROW 48 : ... .. . ... : ... .. . ... : ... .. . ... : D-# 03 . ... : ... .. . ...
ROW 49 : ... .. . ... : ... .. . ... : ... .. . ... : ... .. . ... : ... .. . ...
ROW 4A : ... .. . ... : ... .. . ... : ... .. . ... : ... .. . ... : ... .. . ...
ROW 4B : ... .. . ... : ... .. . ... : ... .. . ... : 9-# 05 4 ... : ... .. . ...

PATTERN 01
ROW 00 : E-3 00 C ... : G-3 00 C ... : G-2 0D . ... : 0-# 04 A ... : ... .. . ...
ROW 01 : ... .. . ... : ... .. . ... : ... .. . ... : ... .. . ... : ... .. . ...
ROW 02 : ... .. . ... : ... .. . ... : ... .. . ... : ... .. . ... : ... .. . ...
ROW 03 : ... .. . ... : ... .. . ... : ... .. . ... : ... .. . ... : ... .. . ...
ROW 04 : ... .. 2 ... : ... .. 2 ... : ... .. . ... : D-# 03 . ... : ... .. . ...
ROW 05 : ... .. 1 ... : ... .. 1 ... : ... .. . ... : ... .. . ... : ... .. . ...
ROW 06 : --- .. . ... : --- .. . ... : ... .. . ... : ... .. . ... : ... .. . ...
ROW 07 : ... .. . ... : ... .. . ... : ... .. . ... : ... .. . ... : ... .. . ...
ROW 08 : ... .. . ... : ... .. . ... : A-2 0D . ... : 9-# 05 . ... : ... .. . ...
ROW 09 : ... .. . ... : ... .. . ... : ... .. . ... : ... .. . ... : ... .. . ...
ROW 0A : ... .. . ... : ... .. . ... : ... .. . ... : ... .. . ... : ... .. . ...
ROW 0B : ... .. . ... : ... .. . ... : ... .. . ... : ... .. . ... : ... .. . ...
ROW 0C : ... .. . ... : ... .. . ... : C-3 0D . ... : 1-# 04 . ... : ... .. . ...
ROW 0D : ... .. . ... : ... .. . ... : ... .. . ... : ... .. . ... : ... .. . ...
ROW 0E : ... .. . ... : ... .. . ... : ... .. . ... : 9-# 05 A ... : ... .. . ...
ROW 0F : ... .. . ... : ... .. . ... : ... .. . ... : ... .. 3 ... : ... .. . ...
ROW 10 : ... .. . ... : ... .. . ... : B-2 0D . ... : D-# 03 A ... : ... .. . ...
ROW 11 : ... .. . ... : ... .. . ... : ... .. . ... : ... .. 3 ... : ... .. . ...
ROW 12 : ... .. . ... : ... .. . ... : ... .. . ... : D-# 03 5 ... : ... .. . ...
ROW 13 : ... .. . ... : ... .. . ... : ... .. . ... : ... .. 1 ... : ... .. . ...
ROW 14 : ... .. . ... : A-3 00 C ... : A-2 0D . ... : 0-# 04 A ... : ... .. . ...
ROW 15 : ... .. . ... : ... .. . ... : ... .. . ... : ... .. . ... : ... .. . ...
ROW 16 : ... .. . ... : ... .. . ... : ... .. . ... : ... .. . ... : ... .. . ...
ROW 17 : ... .. . ... : ... .. . ... : ... .. . ... : ... .. . ... : ... .. . ...
ROW 18 : ... .. . ... : ... .. 2 ... : ... .. . ... : D-# 03 . ... : ... .. . ...
ROW 19 : ... .. . ... : ... .. 1 ... : ... .. . ... : ... .. . ... : ... .. . ...
ROW 1A : ... .. . ... : --- .. . ... : ... .. . ... : ... .. . ... : ... .. . ...
ROW 1B : ... .. . ... : ... .. . ... : ... .. . ... : ... .. . ... : ... .. . ...
ROW 1C : ... .. . ... : ... .. . ... : B-2 0D . ... : 9-# 05 . ... : ... .. . ...
ROW 1D : ... .. . ... : ... .. . ... : ... .. . ... : ... .. . ... : ... .. . ...
ROW 1E : ... .. . ... : ... .. . ... : ... .. . ... : ... .. . ... : ... .. . ...
ROW 1F : ... .. . ... : ... .. . ... : ... .. . ... : ... .. . ... : ... .. . ...
ROW 20 : ... .. . ... : ... .. . ... : C#3 0D . ... : 1-# 04 . ... : ... .. . ...
ROW 21 : ... .. . ... : ... .. . ... : ... .. . ... : ... .. . ... : ... .. . ...
ROW 22 : ... .. . ... : ... .. . ... : ... .. . ... : 9-# 05 A ... : ... .. . ...
ROW 23 : ... .. . ... : ... .. . ... : ... .. . ... : ... .. 3 ... : ... .. . ...
ROW 24 : ... .. . ... : ... .. . ... : D-3 0D . ... : D-# 03 A ... : ... .. . ...
ROW 25 : ... .. . ... : ... .. . ... : ... .. . ... : ... .. 3 ... : ... .. . ...
ROW 26 : ... .. . ... : ... .. . ... : ... .. . ... : 1-# 04 6 ... : ... .. . ...
ROW 27 : ... .. . ... : ... .. . ... : ... .. . ... : ... .. . ... : ... .. . ...
ROW 28 : ... .. . ... : F#3 00 C ... : C-2 0D . ... : 0-# 04 A ... : ... .. . ...
ROW 29 : ... .. . ... : ... .. . ... : ... .. . ... : ... .. . ... : ... .. . ...
ROW 2A : ... .. . ... : ... .. . ... : ... .. . ... : ... .. . ... : ... .. . ...
ROW 2B : ... .. . ... : ... .. . ... : ... .. . ... : ... .. . ... : ... .. . ...
ROW 2C : ... .. . ... : ... .. 2 ... : ... .. . ... : D-# 03 . ... : ... .. . ...
ROW 2D : ... .. . ... : ... .. 1 ... : ... .. . ... : ... .. . ... : ... .. . ...
ROW 2E : ... .. . ... : --- .. . ... : ... .. . ... : 1-# 04 6 ... : ... .. . ...
ROW 2F : ... .. . ... : ... .. . ... : ... .. . ... : ... .. . ... : ... .. . ...
ROW 30 : ... .. . ... : ... .. . ... : G#2 0D . ... : 9-# 05 A ... : ... .. . ...
ROW 31 : ... .. . ... : ... .. . ... : ... .. . ... : ... .. . ... : ... .. . ...
ROW 32 : ... .. . ... : ... .. . ... : ... .. . ... : ... .. . ... : ... .. . ...
ROW 33 : ... .. . ... : ... .. . ... : ... .. . ... : ... .. . ... : ... .. . ...
ROW 34 : ... .. . ... : ... .. . ... : A-2 0D . ... : 1-# 04 . ... : ... .. . ...
ROW 35 : ... .. . ... : ... .. . ... : ... .. . ... : ... .. . ... : ... .. . ...
ROW 36 : ... .. . ... : ... .. . ... : ... .. . ... : 9-# 05 A ... : ... .. . ...
ROW 37 : ... .. . ... : ... .. . ... : ... .. . ... : ... .. 3 ... : ... .. . ...
ROW 38 : ... .. . ... : ... .. . ... : B-2 0D . ... : D-# 03 A ... : ... .. . ...
ROW 39 : ... .. . ... : ... .. . ... : ... .. . ... : ... .. . ... : ... .. . ...
ROW 3A : ... .. . ... : ... .. . ... : ... .. . ... : 1-# 04 6 ... : ... .. . ...
ROW 3B : ... .. . ... : ... .. . ... : ... .. . ... : ... .. 2 ... : ... .. . ...
ROW 3C : ... .. . ... : ... .. . ... : A-2 0D . ... : 0-# 04 A ... : ... .. . ...
ROW 3D : ... .. . ... : ... .. . ... : ... .. . ... : ... .. . ... : ... .. . ...
ROW 3E : ... .. . ... : ... .. . ... : ... .. . ... : ... .. . ... : ... .. . ...
ROW 3F : ... .. . ... : ... .. . ... : ... .. . ... : ... .. . ... : ... .. . ...
ROW 40 : ... .. . ... : ... .. . ... : ... .. . ... : 9-# 05 . ... : ... .. . ...
ROW 41 : ... .. . ... : ... .. . ... : ... .. . ... : ... .. . ... : ... .. . ...
ROW 42 : ... .. . ... : ... .. . ... : ... .. . ... : ... .. . ... : ... .. . ...
ROW 43 : ... .. . ... : ... .. . ... : ... .. . ... : ... .. . ... : ... .. . ...
ROW 44 : ... .. . ... : ... .. . ... : G-2 0D . ... : 0-# 04 . ... : ... .. . ...
ROW 45 : ... .. . ... : ... .. . ... : ... .. . ... : ... .. . ... : ... .. . ...
ROW 46 : ... .. . ... : ... .. . ... : ... .. . ... : 9-# 05 A ... : ... .. . ...
ROW 47 : ... .. . ... : ... .. . ... : ... .. . ... : ... .. 3 ... : ... .. . ...
ROW 48 : ... .. . ... : ... .. . ... : ... .. . ... : 9-# 05 A ... : ... .. . ...
ROW 49 : ... .. . ... : ... .. . ... : ... .. . ... : ... .. 3 ... : ... .. . ...
ROW 4A : ... .. . ... : ... .. . ... : ... .. . ... : 9-# 05 A ... : ... .. . ...
ROW 4B : ... .. . ... : ... .. . ... : ... .. . ... : 9-# 05 3 ... : ... .. . ...

PATTERN 02
ROW 00 : ... .. . ... : ... .. . ... : F-2 0D . ... : 0-# 04 A ... : ... .. . ...
ROW 01 : ... .. . ... : ... .. . ... : ... .. . ... : ... .. . ... : ... .. . ...
ROW 02 : ... .. . ... : ... .. . ... : ... .. . ... : ... .. . ... : ... .. . ...
ROW 03 : ... .. . ... : ... .. . ... : ... .. . ... : ... .. . ... : ... .. . ...
ROW 04 : ... .. . ... : ... .. . ... : ... .. . ... : D-# 03 . ... : ... .. . ...
ROW 05 : ... .. . ... : ... .. . ... : --- .. . ... : ... .. . ... : ... .. . ...
ROW 06 : ... .. . ... : ... .. . ... : F-2 0D . ... : ... .. . ... : ... .. . ...
ROW 07 : ... .. . ... : ... .. . ... : ... .. . ... : ... .. . ... : ... .. . ...
ROW 08 : ... .. . ... : ... .. . ... : A-2 0D . ... : 9-# 05 . ... : ... .. . ...
ROW 09 : ... .. . ... : ... .. . ... : ... .. . ... : ... .. . ... : ... .. . ...
ROW 0A : ... .. . ... : ... .. . ... : ... .. . ... : ... .. . ... : ... .. . ...
ROW 0B : ... .. . ... : ... .. . ... : ... .. . ... : ... .. . ... : ... .. . ...
ROW 0C : ... .. . ... : ... .. . ... : C-3 0D . ... : 1-# 04 . ... : ... .. . ...
ROW 0D : ... .. . ... : ... .. . ... : ... .. . ... : ... .. . ... : ... .. . ...
ROW 0E : ... .. . ... : ... .. . ... : ... .. . ... : 9-# 05 A ... : ... .. . ...
ROW 0F : ... .. . ... : ... .. . ... : ... .. . ... : ... .. 3 ... : ... .. . ...
ROW 10 : ... .. . ... : ... .. . ... : B-2 0D . ... : D-# 03 A ... : ... .. . ...
ROW 11 : ... .. . ... : ... .. . ... : ... .. . ... : ... .. 3 ... : ... .. . ...
ROW 12 : ... .. . ... : ... .. . ... : ... .. . ... : D-# 03 5 ... : ... .. . ...
ROW 13 : ... .. . ... : ... .. . ... : ... .. . ... : ... .. 1 ... : ... .. . ...
ROW 14 : ... .. . ... : ... .. . ... : F#2 0D . ... : 0-# 04 A ... : ... .. . ...
ROW 15 : ... .. . ... : ... .. . ... : ... .. . ... : ... .. . ... : ... .. . ...
ROW 16 : ... .. . ... : ... .. . ... : ... .. . ... : ... .. . ... : ... .. . ...
ROW 17 : ... .. . ... : ... .. . ... : ... .. . ... : ... .. . ... : ... .. . ...
ROW 18 : ... .. . ... : ... .. . ... : ... .. . ... : D-# 03 . ... : ... .. . ...
ROW 19 : ... .. . ... : ... .. . ... : --- .. . ... : ... .. . ... : ... .. . ...
ROW 1A : ... .. . ... : ... .. . ... : E-2 03 . ... : ... .. . ... : ... .. . ...
ROW 1B : ... .. . ... : ... .. . ... : ... .. . ... : ... .. . ... : ... .. . ...
ROW 1C : ... .. . ... : ... .. . ... : F#2 0D . ... : 9-# 05 . ... : ... .. . ...
ROW 1D : ... .. . ... : ... .. . ... : ... .. . ... : ... .. . ... : ... .. . ...
ROW 1E : ... .. . ... : ... .. . ... : ... .. . ... : ... .. . ... : ... .. . ...
ROW 1F : ... .. . ... : ... .. . ... : ... .. . ... : ... .. . ... : ... .. . ...
ROW 20 : ... .. . ... : ... .. . ... : B-2 0D . ... : 1-# 04 . ... : ... .. . ...
ROW 21 : ... .. . ... : ... .. . ... : ... .. . ... : ... .. . ... : ... .. . ...
ROW 22 : ... .. . ... : ... .. . ... : ... .. . ... : 9-# 05 A ... : ... .. . ...
ROW 23 : ... .. . ... : ... .. . ... : ... .. . ... : ... .. 3 ... : ... .. . ...
ROW 24 : ... .. . ... : ... .. . ... : A-2 0D . ... : D-# 03 A ... : ... .. . ...
ROW 25 : ... .. . ... : ... .. . ... : ... .. . ... : ... .. 3 ... : ... .. . ...
ROW 26 : ... .. . ... : ... .. . ... : ... .. . ... : 1-# 04 6 ... : ... .. . ...
ROW 27 : ... .. . ... : ... .. . ... : ... .. . ... : ... .. . ... : ... .. . ...
ROW 28 : ... .. . ... : ... .. . ... : E-2 0D . ... : 0-# 04 A ... : ... .. . ...
ROW 29 : ... .. . ... : ... .. . ... : ... .. . ... : ... .. . ... : ... .. . ...
ROW 2A : ... .. . ... : ... .. . ... : ... .. . ... : ... .. . ... : ... .. . ...
ROW 2B : ... .. . ... : ... .. . ... : ... .. . ... : ... .. . ... : ... .. . ...
ROW 2C : ... .. . ... : ... .. . ... : ... .. . ... : D-# 03 . ... : ... .. . ...
ROW 2D : ... .. . ... : ... .. . ... : --- .. . ... : ... .. . ... : ... .. . ...
ROW 2E : ... .. . ... : ... .. . ... : E-2 03 . ... : 1-# 04 6 ... : ... .. . ...
ROW 2F : ... .. . ... : ... .. . ... : ... .. . ... : ... .. . ... : ... .. . ...
ROW 30 : ... .. . ... : ... .. . ... : G#2 0D . ... : 9-# 05 A ... : ... .. . ...
ROW 31 : ... .. . ... : ... .. . ... : ... .. . ... : ... .. . ... : ... .. . ...
ROW 32 : ... .. . ... : ... .. . ... : ... .. . ... : ... .. . ... : ... .. . ...
ROW 33 : ... .. . ... : ... .. . ... : ... .. . ... : ... .. . ... : ... .. . ...
ROW 34 : ... .. . ... : ... .. . ... : B-2 0D . ... : 1-# 04 . ... : ... .. . ...
ROW 35 : ... .. . ... : ... .. . ... : ... .. . ... : ... .. . ... : ... .. . ...
ROW 36 : ... .. . ... : ... .. . ... : ... .. . ... : 9-# 05 A ... : ... .. . ...
ROW 37 : ... .. . ... : ... .. . ... : ... .. . ... : ... .. 3 ... : ... .. . ...
ROW 38 : ... .. . ... : ... .. . ... : A#2 0D . ... : D-# 03 A ... : ... .. . ...
ROW 39 : ... .. . ... : ... .. . ... : ... .. . ... : ... .. . ... : ... .. . ...
ROW 3A : ... .. . ... : ... .. . ... : ... .. . ... : 1-# 04 6 ... : ... .. . ...
ROW 3B : ... .. . ... : ... .. . ... : ... .. . ... : ... .. 2 ... : ... .. . ...
ROW 3C : ... .. . ... : ... .. . ... : A-2 0D . ... : 9-# 05 A ... : ... .. . ...
ROW 3D : ... .. . ... : ... .. . ... : ... .. . ... : ... .. . ... : ... .. . ...
ROW 3E : ... .. . ... : ... .. . ... : ... .. . ... : ... .. . ... : ... .. . ...
ROW 3F : ... .. . ... : ... .. . ... : ... .. . ... : ... .. . ... : ... .. . ...
ROW 40 : ... .. . ... : ... .. . ... : ... .. . ... : 0-# 04 . ... : ... .. . ...
ROW 41 : ... .. . ... : ... .. . ... : ... .. . ... : ... .. . ... : ... .. . ...
ROW 42 : ... .. . ... : ... .. . ... : G#2 0D . ... : ... .. . ... : ... .. . ...
ROW 43 : ... .. . ... : ... .. . ... : ... .. . ... : ... .. . ... : ... .. . ...
ROW 44 : ... .. . ... : ... .. . ... : B-2 0D . ... : 9-# 05 A ... : ... .. . ...
ROW 45 : ... .. . ... : ... .. . ... : ... .. . ... : ... .. . ... : ... .. . ...
ROW 46 : ... .. . ... : ... .. . ... : ... .. . ... : ... .. . ... : ... .. . ...
ROW 47 : ... .. . ... : ... .. . ... : ... .. . ... : ... .. . ... : ... .. . ...
ROW 48 : ... .. . ... : ... .. . ... : ... .. . ... : 9-# 05 A ... : ... .. . ...
ROW 49 : ... .. . ... : ... .. . ... : ... .. . ... : ... .. 3 ... : ... .. . ...
ROW 4A : ... .. . ... : ... .. . ... : A-1 03 . ... : 9-# 05 A ... : ... .. . ...
ROW 4B : ... .. . ... : ... .. . ... : ... .. . ... : 9-# 05 3 ... : ... .. . ...

PATTERN 03
ROW 00 : ... .. . ... : ... .. . ... : G-2 0D . ... : 0-# 04 5 ... : ... .. . ...
ROW 01 : ... .. . ... : ... .. . ... : ... .. . ... : ... .. 1 ... : ... .. . ...
ROW 02 : ... .. . ... : ... .. . ... : ... .. . ... : ... .. . ... : ... .. . ...
ROW 03 : ... .. . ... : ... .. . ... : ... .. . ... : ... .. . ... : ... .. . ...
ROW 04 : ... .. . ... : ... .. . ... : ... .. . ... : ... .. . ... : ... .. . ...
ROW 05 : ... .. . ... : ... .. . ... : --- .. . ... : ... .. . ... : ... .. . ...
ROW 06 : ... .. . ... : ... .. . ... : G-2 0D . ... : ... .. . ... : ... .. . ...
ROW 07 : ... .. . ... : ... .. . ... : ... .. . ... : ... .. . ... : ... .. . ...
ROW 08 : ... .. . ... : ... .. . ... : A-2 0D . ... : 0-# 04 5 ... : ... .. . ...
ROW 09 : ... .. . ... : ... .. . ... : ... .. . ... : ... .. 1 ... : ... .. . ...
ROW 0A : ... .. . ... : ... .. . ... : ... .. . ... : ... .. . ... : ... .. . ...
ROW 0B : ... .. . ... : ... .. . ... : ... .. . ... : ... .. . ... : ... .. . ...
ROW 0C : ... .. . ... : ... .. . ... : C-3 0D . ... : ... .. . ... : ... .. . ...
ROW 0D : ... .. . ... : ... .. . ... : ... .. . ... : ... .. . ... : ... .. . ...
ROW 0E : ... .. . ... : ... .. . ... : ... .. . ... : ... .. . ... : ... .. . ...
ROW 0F : ... .. . ... : ... .. . ... : ... .. . ... : ... .. . ... : ... .. . ...
ROW 10 : ... .. . ... : ... .. . ... : B-2 0D . ... : 0-# 04 5 ... : ... .. . ...
ROW 11 : ... .. . ... : ... .. . ... : ... .. . ... : ... .. 1 ... : ... .. . ...
ROW 12 : ... .. . ... : ... .. . ... : ... .. . ... : ... .. . ... : ... .. . ...
ROW 13 : ... .. . ... : ... .. . ... : ... .. . ... : ... .. . ... : ... .. . ...
ROW 14 : ... .. . ... : ... .. . ... : A-2 0D . ... : ... .. . ... : ... .. . ...
ROW 15 : ... .. . ... : ... .. . ... : ... .. . ... : ... .. . ... : ... .. . ...
ROW 16 : ... .. . ... : ... .. . ... : ... .. . ... : ... .. . ... : ... .. . ...
ROW 17 : ... .. . ... : ... .. . ... : ... .. . ... : ... .. . ... : ... .. . ...
ROW 18 : ... .. . ... : ... .. . ... : ... .. . ... : 0-# 04 5 ... : ... .. . ...
ROW 19 : ... .. . ... : ... .. . ... : --- .. . ... : ... .. 1 ... : ... .. . ...
ROW 1A : ... .. . ... : ... .. . ... : A-2 0D . ... : ... .. . ... : ... .. . ...
ROW 1B : ... .. . ... : ... .. . ... : ... .. . ... : ... .. . ... : ... .. . ...
ROW 1C : ... .. . ... : ... .. . ... : B-2 0D . ... : ... .. . ... : ... .. . ...
ROW 1D : ... .. . ... : ... .. . ... : ... .. . ... : ... .. . ... : ... .. . ...
ROW 1E : ... .. . ... : ... .. . ... : ... .. . ... : ... .. . ... : ... .. . ...
ROW 1F : ... .. . ... : ... .. . ... : ... .. . ... : ... .. . ... : ... .. . ...
ROW 20 : ... .. . ... : ... .. . ... : C#3 0D . ... : 0-# 04 5 ... : ... .. . ...
ROW 21 : ... .. . ... : ... .. . ... : ... .. . ... : ... .. 1 ... : ... .. . ...
ROW 22 : ... .. . ... : ... .. . ... : ... .. . ... : ... .. . ... : ... .. . ...
ROW 23 : ... .. . ... : ... .. . ... : ... .. . ... : ... .. . ... : ... .. . ...
ROW 24 : ... .. . ... : ... .. . ... : D-3 0D . ... : ... .. . ... : ... .. . ...
ROW 25 : ... .. . ... : ... .. . ... : ... .. . ... : ... .. . ... : ... .. . ...
ROW 26 : ... .. . ... : ... .. . ... : ... .. . ... : ... .. . ... : ... .. . ...
ROW 27 : ... .. . ... : ... .. . ... : ... .. . ... : ... .. . ... : ... .. . ...
ROW 28 : ... .. . ... : ... .. . ... : C-2 0D . ... : 0-# 04 5 ... : ... .. . ...
ROW 29 : ... .. . ... : ... .. . ... : ... .. . ... : ... .. 1 ... : ... .. . ...
ROW 2A : ... .. . ... : ... .. . ... : ... .. . ... : ... .. . ... : ... .. . ...
ROW 2B : ... .. . ... : ... .. . ... : ... .. . ... : ... .. . ... : ... .. . ...
ROW 2C : ... .. . ... : ... .. . ... : ... .. . ... : ... .. . ... : ... .. . ...
ROW 2D : ... .. . ... : ... .. . ... : --- .. . ... : ... .. . ... : ... .. . ...
ROW 2E : ... .. . ... : ... .. . ... : F#2 03 . ... : ... .. . ... : ... .. . ...
ROW 2F : ... .. . ... : ... .. . ... : ... .. . ... : ... .. . ... : ... .. . ...
ROW 30 : ... .. . ... : ... .. . ... : G#2 0D . ... : 0-# 04 5 ... : ... .. . ...
ROW 31 : ... .. . ... : ... .. . ... : ... .. . ... : ... .. 1 ... : ... .. . ...
ROW 32 : ... .. . ... : ... .. . ... : ... .. . ... : ... .. . ... : ... .. . ...
ROW 33 : ... .. . ... : ... .. . ... : ... .. . ... : ... .. . ... : ... .. . ...
ROW 34 : ... .. . ... : ... .. . ... : A-2 0D . ... : ... .. . ... : ... .. . ...
ROW 35 : ... .. . ... : ... .. . ... : ... .. . ... : ... .. . ... : ... .. . ...
ROW 36 : ... .. . ... : ... .. . ... : ... .. . ... : ... .. . ... : ... .. . ...
ROW 37 : ... .. . ... : ... .. . ... : ... .. . ... : ... .. . ... : ... .. . ...
ROW 38 : ... .. . ... : ... .. . ... : B-2 0D . ... : 0-# 04 5 ... : ... .. . ...
ROW 39 : ... .. . ... : ... .. . ... : ... .. . ... : ... .. 1 ... : ... .. . ...
ROW 3A : ... .. . ... : ... .. . ... : ... .. . ... : ... .. . ... : ... .. . ...
ROW 3B : ... .. . ... : ... .. . ... : ... .. . ... : ... .. . ... : ... .. . ...
ROW 3C : ... .. . ... : ... .. . ... : A-2 0D . ... : 0-# 04 5 ... : ... .. . ...
ROW 3D : ... .. . ... : ... .. . ... : ... .. . ... : ... .. 1 ... : ... .. . ...
ROW 3E : ... .. . ... : ... .. . ... : ... .. . ... : ... .. . ... : ... .. . ...
ROW 3F : ... .. . ... : ... .. . ... : ... .. . ... : ... .. . ... : ... .. . ...
ROW 40 : ... .. . ... : ... .. . ... : ... .. . ... : ... .. . ... : ... .. . ...
ROW 41 : ... .. . ... : ... .. . ... : ... .. . ... : ... .. . ... : ... .. . ...
ROW 42 : ... .. . ... : ... .. . ... : G#2 03 . ... : ... .. . ... : ... .. . ...
ROW 43 : ... .. . ... : ... .. . ... : ... .. . ... : ... .. . ... : ... .. . ...
ROW 44 : ... .. . ... : ... .. . ... : G-2 0D . ... : 0-# 04 5 ... : ... .. . ...
ROW 45 : ... .. . ... : ... .. . ... : ... .. . ... : ... .. 1 ... : ... .. . ...
ROW 46 : ... .. . ... : ... .. . ... : ... .. . ... : ... .. . ... : ... .. . ...
ROW 47 : ... .. . ... : ... .. . ... : ... .. . ... : ... .. . ... : ... .. . ...
ROW 48 : ... .. . ... : ... .. . ... : ... .. . ... : ... .. . ... : ... .. . ...
ROW 49 : ... .. . ... : ... .. . ... : ... .. . ... : ... .. . ... : ... .. . ...
ROW 4A : ... .. . ... : ... .. . ... : F#2 03 . ... : ... .. . ... : ... .. . ...
ROW 4B : ... .. . ... : ... .. . ... : ... .. . ... : ... .. . ... : ... .. . ...

PATTERN 04
ROW 00 : ... .. . ... : ... .. . ... : G-2 0D . ... : 0-# 04 5 ... : ... .. . ...
ROW 01 : ... .. . ... : ... .. . ... : ... .. . ... : ... .. 2 ... : ... .. . ...
ROW 02 : ... .. . ... : ... .. . ... : ... .. . ... : ... .. . ... : ... .. . ...
ROW 03 : ... .. . ... : ... .. . ... : ... .. . ... : ... .. . ... : ... .. . ...
ROW 04 : ... .. . ... : ... .. . ... : ... .. . ... : ... .. . ... : ... .. . ...
ROW 05 : ... .. . ... : ... .. . ... : --- .. . ... : ... .. . ... : ... .. . ...
ROW 06 : ... .. . ... : ... .. . ... : G-2 0D . ... : ... .. . ... : ... .. . ...
ROW 07 : ... .. . ... : ... .. . ... : ... .. . ... : ... .. . ... : ... .. . ...
ROW 08 : ... .. . ... : ... .. . ... : A-2 0D . ... : 0-# 04 5 ... : ... .. . ...
ROW 09 : ... .. . ... : ... .. . ... : ... .. . ... : ... .. 3 ... : ... .. . ...
ROW 0A : ... .. . ... : ... .. . ... : ... .. . ... : ... .. . ... : ... .. . ...
ROW 0B : ... .. . ... : ... .. . ... : ... .. . ... : ... .. . ... : ... .. . ...
ROW 0C : ... .. . ... : ... .. . ... : C-3 0D . ... : ... .. . ... : ... .. . ...
ROW 0D : ... .. . ... : ... .. . ... : ... .. . ... : ... .. . ... : ... .. . ...
ROW 0E : ... .. . ... : ... .. . ... : ... .. . ... : ... .. . ... : ... .. . ...
ROW 0F : ... .. . ... : ... .. . ... : ... .. . ... : ... .. . ... : ... .. . ...
ROW 10 : ... .. . ... : ... .. . ... : B-2 0D . ... : 0-# 04 5 ... : ... .. . ...
ROW 11 : ... .. . ... : ... .. . ... : ... .. . ... : ... .. 4 ... : ... .. . ...
ROW 12 : ... .. . ... : ... .. . ... : ... .. . ... : ... .. . ... : ... .. . ...
ROW 13 : ... .. . ... : ... .. . ... : ... .. . ... : ... .. . ... : ... .. . ...
ROW 14 : ... .. . ... : ... .. . ... : A-2 0D . ... : ... .. . ... : ... .. . ...
ROW 15 : ... .. . ... : ... .. . ... : ... .. . ... : ... .. . ... : ... .. . ...
ROW 16 : ... .. . ... : ... .. . ... : ... .. . ... : ... .. . ... : ... .. . ...
ROW 17 : ... .. . ... : ... .. . ... : ... .. . ... : ... .. . ... : ... .. . ...
ROW 18 : ... .. . ... : ... .. . ... : ... .. . ... : 0-# 04 6 ... : ... .. . ...
ROW 19 : ... .. . ... : ... .. . ... : --- .. . ... : ... .. 4 ... : ... .. . ...
ROW 1A : ... .. . ... : ... .. . ... : A-2 0D . ... : ... .. . ... : ... .. . ...
ROW 1B : ... .. . ... : ... .. . ... : ... .. . ... : ... .. . ... : ... .. . ...
ROW 1C : ... .. . ... : ... .. . ... : B-2 0D . ... : ... .. . ... : ... .. . ...
ROW 1D : ... .. . ... : ... .. . ... : ... .. . ... : ... .. . ... : ... .. . ...
ROW 1E : ... .. . ... : ... .. . ... : ... .. . ... : ... .. . ... : ... .. . ...
ROW 1F : ... .. . ... : ... .. . ... : ... .. . ... : ... .. . ... : ... .. . ...
ROW 20 : ... .. . ... : ... .. . ... : C#3 0D . ... : 0-# 04 7 ... : ... .. . ...
ROW 21 : ... .. . ... : ... .. . ... : ... .. . ... : ... .. 5 ... : ... .. . ...
ROW 22 : ... .. . ... : ... .. . ... : ... .. . ... : ... .. . ... : ... .. . ...
ROW 23 : ... .. . ... : ... .. . ... : ... .. . ... : ... .. . ... : ... .. . ...
ROW 24 : ... .. . ... : ... .. . ... : D-3 0D . ... : ... .. . ... : ... .. . ...
ROW 25 : ... .. . ... : ... .. . ... : ... .. . ... : ... .. . ... : ... .. . ...
ROW 26 : ... .. . ... : ... .. . ... : ... .. . ... : ... .. . ... : ... .. . ...
ROW 27 : ... .. . ... : ... .. . ... : ... .. . ... : ... .. . ... : ... .. . ...
ROW 28 : ... .. . ... : ... .. . ... : C-2 0D . ... : 0-# 04 8 ... : ... .. . ...
ROW 29 : ... .. . ... : ... .. . ... : ... .. . ... : ... .. 6 ... : ... .. . ...
ROW 2A : ... .. . ... : ... .. . ... : ... .. . ... : ... .. . ... : ... .. . ...
ROW 2B : ... .. . ... : ... .. . ... : ... .. . ... : ... .. . ... : ... .. . ...
ROW 2C : ... .. . ... : ... .. . ... : ... .. . ... : ... .. . ... : ... .. . ...
ROW 2D : ... .. . ... : ... .. . ... : --- .. . ... : ... .. . ... : ... .. . ...
ROW 2E : ... .. . ... : ... .. . ... : F#2 03 . ... : ... .. . ... : ... .. . ...
ROW 2F : ... .. . ... : ... .. . ... : ... .. . ... : ... .. . ... : ... .. . ...
ROW 30 : ... .. . ... : ... .. . ... : G#2 0D . ... : 0-# 04 9 ... : ... .. . ...
ROW 31 : ... .. . ... : ... .. . ... : ... .. . ... : ... .. 7 ... : ... .. . ...
ROW 32 : ... .. . ... : ... .. . ... : ... .. . ... : ... .. . ... : ... .. . ...
ROW 33 : ... .. . ... : ... .. . ... : ... .. . ... : ... .. . ... : ... .. . ...
ROW 34 : ... .. . ... : ... .. . ... : A-2 0D . ... : ... .. . ... : ... .. . ...
ROW 35 : ... .. . ... : ... .. . ... : ... .. . ... : ... .. . ... : ... .. . ...
ROW 36 : ... .. . ... : ... .. . ... : ... .. . ... : ... .. . ... : ... .. . ...
ROW 37 : ... .. . ... : ... .. . ... : ... .. . ... : ... .. . ... : ... .. . ...
ROW 38 : ... .. . ... : ... .. . ... : B-2 0D . ... : 0-# 04 9 ... : ... .. . ...
ROW 39 : ... .. . ... : ... .. . ... : ... .. . ... : ... .. 7 ... : ... .. . ...
ROW 3A : ... .. . ... : ... .. . ... : ... .. . ... : D-# 03 3 ... : ... .. . ...
ROW 3B : ... .. . ... : ... .. . ... : ... .. . ... : ... .. . ... : ... .. . ...
ROW 3C : ... .. . ... : ... .. . ... : A-2 0D . ... : 0-# 04 A ... : ... .. . ...
ROW 3D : ... .. . ... : ... .. . ... : ... .. . ... : ... .. . ... : ... .. . ...
ROW 3E : ... .. . ... : ... .. . ... : ... .. . ... : 9-# 05 5 ... : ... .. . ...
ROW 3F : ... .. . ... : ... .. . ... : ... .. . ... : ... .. 1 ... : ... .. . ...
ROW 40 : ... .. . ... : ... .. . ... : ... .. . ... : 9-# 05 7 ... : ... .. . ...
ROW 41 : ... .. . ... : ... .. . ... : ... .. . ... : ... .. 2 ... : ... .. . ...
ROW 42 : ... .. . ... : ... .. . ... : F#2 03 . ... : 9-# 05 9 ... : ... .. . ...
ROW 43 : ... .. . ... : ... .. . ... : ... .. . ... : ... .. 3 ... : ... .. . ...
ROW 44 : ... .. . ... : ... .. . ... : G-2 0D . ... : 0-# 04 A ... : ... .. . ...
ROW 45 : ... .. . ... : ... .. . ... : ... .. . ... : ... .. . ... : ... .. . ...
ROW 46 : ... .. . ... : ... .. . ... : ... .. . ... : 9-# 05 A ... : ... .. . ...
ROW 47 : ... .. . ... : ... .. . ... : ... .. . ... : ... .. 3 ... : ... .. . ...
ROW 48 : ... .. . ... : ... .. . ... : ... .. . ... : 9-# 05 A ... : ... .. . ...
ROW 49 : ... .. . ... : ... .. . ... : ... .. . ... : ... .. 3 ... : ... .. . ...
ROW 4A : ... .. . ... : ... .. . ... : E-2 03 . ... : 9-# 05 A ... : ... .. . ...
ROW 4B : ... .. . ... : ... .. . ... : ... .. . ... : 9-# 05 3 ... : ... .. . ...

TRACK  48   6 150 "cheery - Phillip Miller"
COLUMNS : 1 1 1 1 1

ORDER 00 : 02 00 01 02 00
ORDER 01 : 02 02 01 02 00
ORDER 02 : 00 00 00 00 00
ORDER 03 : 00 00 00 00 00
ORDER 04 : 00 00 00 00 00
ORDER 05 : 01 01 00 01 00
ORDER 06 : 00 00 00 00 00
ORDER 07 : 01 00 00 01 00
ORDER 08 : 00 00 00 00 00
ORDER 09 : 01 00 00 01 00

PATTERN 00
ROW 00 : D-2 01 F ... : D-3 02 . ... : D-5 0A . ... : 0-# 08 . ... : ... .. . ...
ROW 01 : ... .. . ... : ... .. . ... : ... .. . ... : ... .. . ... : ... .. . ...
ROW 02 : ... .. . ... : --- .. . ... : ... .. . ... : ... .. . ... : ... .. . ...
ROW 03 : D-2 01 D ... : ... .. . ... : ... .. . ... : ... .. . ... : ... .. . ...
ROW 04 : ... .. . ... : F#3 02 . ... : ... .. . ... : 5-# 09 . ... : ... .. . ...
ROW 05 : ... .. . ... : ... .. . ... : ... .. . ... : ... .. . ... : ... .. . ...
ROW 06 : D-2 01 B ... : ... .. . ... : ... .. . ... : ... .. . ... : ... .. . ...
ROW 07 : ... .. . ... : ... .. . ... : ... .. . ... : ... .. . ... : ... .. . ...
ROW 08 : ... .. . ... : A-3 02 . ... : ... .. . ... : 9-# 07 . ... : ... .. . ...
ROW 09 : D-2 01 9 ... : ... .. . ... : ... .. . ... : ... .. . ... : ... .. . ...
ROW 0A : ... .. . ... : ... .. . ... : ... .. . ... : 9-# 07 . ... : ... .. . ...
ROW 0B : ... .. . ... : ... .. . ... : ... .. . ... : ... .. . ... : ... .. . ...
ROW 0C : D-2 01 F ... : D-3 02 . ... : ... .. . ... : 0-# 09 . ... : ... .. . ...
ROW 0D : ... .. . ... : ... .. . ... : ... .. . ... : ... .. . ... : ... .. . ...
ROW 0E : ... .. . ... : --- .. . ... : ... .. . ... : ... .. . ... : ... .. . ...
ROW 0F : D-2 01 D ... : ... .. . ... : ... .. . ... : ... .. . ... : ... .. . ...
ROW 10 : ... .. . ... : A-3 02 . ... : ... .. . ... : 5-# 09 . ... : ... .. . ...
ROW 11 : ... .. . ... : ... .. . ... : ... .. . ... : ... .. . ... : ... .. . ...
ROW 12 : D-2 01 B ... : ... .. . ... : ... .. . ... : 9-# 07 . ... : ... .. . ...
ROW 13 : ... .. . ... : ... .. . ... : ... .. . ... : ... .. . ... : ... .. . ...
ROW 14 : ... .. . ... : F#3 02 . ... : ... .. . ... : 5-# 09 . ... : ... .. . ...
ROW 15 : D-2 01 9 ... : ... .. . ... : ... .. . ... : ... .. . ... : ... .. . ...
ROW 16 : ... .. . ... : E-3 02 . ... : ... .. . ... : ... .. . ... : ... .. . ...
ROW 17 : ... .. . ... : ... .. . ... : ... .. . ... : ... .. . ... : ... .. . ...
ROW 18 : D-2 01 F ... : D-3 02 . ... : ... .. . ... : 0-# 08 . ... : ... .. . ...
ROW 19 : ... .. . ... : ... .. . ... : ... .. . ... : ... .. . ... : ... .. . ...
ROW 1A : ... .. . ... : --- .. . ... : ... .. . ... : ... .. . ... : ... .. . ...
ROW 1B : D-2 01 D ... : ... .. . ... : ... .. . ... : ... .. . ... : ... .. . ...
ROW 1C : ... .. . ... : F#3 02 . ... : ... .. . ... : 5-# 09 . ... : ... .. . ...
ROW 1D : ... .. . ... : ... .. . ... : ... .. . ... : ... .. . ... : ... .. . ...
ROW 1E : D-2 01 B ... : ... .. . ... : ... .. . ... : ... .. . ... : ... .. . ...
ROW 1F : ... .. . ... : ... .. . ... : ... .. . ... : ... .. . ... : ... .. . ...
ROW 20 : ... .. . ... : A-3 02 . ... : ... .. . ... : 9-# 07 . ... : ... .. . ...
ROW 21 : D-2 01 9 ... : ... .. . ... : ... .. . ... : ... .. . ... : ... .. . ...
ROW 22 : ... .. . ... : ... .. . ... : ... .. . ... : 9-# 07 . ... : ... .. . ...
ROW 23 : ... .. . ... : ... .. . ... : ... .. . ... : ... .. . ... : ... .. . ...
ROW 24 : D-2 01 F ... : D-3 02 . ... : ... .. . ... : 0-# 09 . ... : ... .. . ...
ROW 25 : ... .. . ... : ... .. . ... : ... .. . ... : ... .. . ... : ... .. . ...
ROW 26 : ... .. . ... : --- .. . ... : ... .. . ... : ... .. . ... : ... .. . ...
ROW 27 : D-2 01 D ... : ... .. . ... : ... .. . ... : ... .. . ... : ... .. . ...
ROW 28 : ... .. . ... : B-3 02 . ... : ... .. . ... : 5-# 09 . ... : ... .. . ...
ROW 29 : ... .. . ... : ... .. . ... : ... .. . ... : ... .. . ... : ... .. . ...
ROW 2A : D-2 01 B ... : A-3 02 . ... : ... .. . ... : 9-# 07 . ... : ... .. . ...
ROW 2B : ... .. . ... : ... .. . ... : ... .. . ... : ... .. . ... : ... .. . ...
ROW 2C : ... .. . ... : F#3 02 . ... : ... .. . ... : 5-# 09 . ... : ... .. . ...
ROW 2D : D-2 01 9 ... : ... .. . ... : ... .. . ... : ... .. . ... : ... .. . ...
ROW 2E : ... .. . ... : E-3 02 . ... : ... .. . ... : ... .. . ... : ... .. . ...
ROW 2F : ... .. . ... : ... .. . ... : ... .. . ... : ... .. . ... : ... .. . ...

PATTERN 01
ROW 00 : D-2 01 F ... : D-3 02 . ... : --- .. . ... : 0-# 08 . ... : ... .. . ...
ROW 01 : ... .. . ... : ... .. . ... : ... .. . ... : ... .. . ... : ... .. . ...
ROW 02 : ... .. . ... : --- .. . ... : ... .. . ... : ... .. . ... : ... .. . ...
ROW 03 : D-2 01 D ... : ... .. . ... : ... .. . ... : ... .. . ... : ... .. . ...
ROW 04 : ... .. . ... : F#3 02 . ... : ... .. . ... : 5-# 09 . ... : ... .. . ...
ROW 05 : ... .. . ... : ... .. . ... : ... .. . ... : ... .. . ... : ... .. . ...
ROW 06 : D-2 01 B ... : ... .. . ... : ... .. . ... : ... .. . ... : ... .. . ...
ROW 07 : ... .. . ... : ... .. . ... : ... .. . ... : ... .. . ... : ... .. . ...
ROW 08 : ... .. . ... : A-3 02 . ... : ... .. . ... : 9-# 07 . ... : ... .. . ...
ROW 09 : D-2 01 9 ... : ... .. . ... : ... .. . ... : ... .. . ... : ... .. . ...
ROW 0A : ... .. . ... : ... .. . ... : ... .. . ... : 9-# 07 . ... : ... .. . ...
ROW 0B : ... .. . ... : ... .. . ... : ... .. . ... : ... .. . ... : ... .. . ...
ROW 0C : D-2 01 F ... : D-3 02 . ... : ... .. . ... : 0-# 09 . ... : ... .. . ...
ROW 0D : ... .. . ... : ... .. . ... : ... .. . ... : ... .. . ... : ... .. . ...
ROW 0E : ... .. . ... : --- .. . ... : ... .. . ... : ... .. . ... : ... .. . ...
ROW 0F : D-2 01 D ... : ... .. . ... : ... .. . ... : ... .. . ... : ... .. . ...
ROW 10 : ... .. . ... : A-3 02 . ... : ... .. . ... : 5-# 09 . ... : ... .. . ...
ROW 11 : ... .. . ... : ... .. . ... : ... .. . ... : ... .. . ... : ... .. . ...
ROW 12 : D-2 01 B ... : ... .. . ... : ... .. . ... : 9-# 07 . ... : ... .. . ...
ROW 13 : ... .. . ... : ... .. . ... : ... .. . ... : ... .. . ... : ... .. . ...
ROW 14 : ... .. . ... : F#3 02 . ... : ... .. . ... : 5-# 09 . ... : ... .. . ...
ROW 15 : D-2 01 9 ... : ... .. . ... : ... .. . ... : ... .. . ... : ... .. . ...
ROW 16 : ... .. . ... : E-3 02 . ... : ... .. . ... : ... .. . ... : ... .. . ...
ROW 17 : ... .. . ... : ... .. . ... : ... .. . ... : ... .. . ... : ... .. . ...
ROW 18 : D-2 01 F ... : D-3 02 . ... : ... .. . ... : 0-# 08 . ... : ... .. . ...
ROW 19 : ... .. . ... : ... .. . ... : ... .. . ... : ... .. . ... : ... .. . ...
ROW 1A : ... .. . ... : --- .. . ... : ... .. . ... : ... .. . ... : ... .. . ...
ROW 1B : D-2 01 D ... : ... .. . ... : ... .. . ... : ... .. . ... : ... .. . ...
ROW 1C : ... .. . ... : F#3 02 . ... : ... .. . ... : 5-# 09 . ... : ... .. . ...
ROW 1D : ... .. . ... : ... .. . ... : ... .. . ... : ... .. . ... : ... .. . ...
ROW 1E : D-2 01 B ... : ... .. . ... : ... .. . ... : ... .. . ... : ... .. . ...
ROW 1F : ... .. . ... : ... .. . ... : ... .. . ... : ... .. . ... : ... .. . ...
ROW 20 : ... .. . ... : A-3 02 . ... : ... .. . ... : 9-# 07 . ... : ... .. . ...
ROW 21 : D-2 01 9 ... : ... .. . ... : ... .. . ... : ... .. . ... : ... .. . ...
ROW 22 : ... .. . ... : ... .. . ... : ... .. . ... : 9-# 07 . ... : ... .. . ...
ROW 23 : ... .. . ... : ... .. . ... : ... .. . ... : ... .. . ... : ... .. . ...
ROW 24 : D-2 01 F ... : D-3 02 . ... : ... .. . ... : 0-# 09 . ... : ... .. . ...
ROW 25 : ... .. . ... : ... .. . ... : ... .. . ... : ... .. . ... : ... .. . ...
ROW 26 : --- .. . ... : --- .. . ... : ... .. . ... : ... .. . ... : ... .. . ...
ROW 27 : ... .. . ... : ... .. . ... : ... .. . ... : ... .. . ... : ... .. . ...
ROW 28 : ... .. . ... : A#2 02 . ... : ... .. . ... : ... .. . ... : ... .. . ...
ROW 29 : ... .. . ... : ... .. . ... : ... .. . ... : ... .. . ... : ... .. . ...
ROW 2A : ... .. . ... : B-2 02 . ... : ... .. . ... : ... .. . ... : ... .. . ...
ROW 2B : ... .. . ... : ... .. . ... : ... .. . ... : ... .. . ... : ... .. . ...
ROW 2C : ... .. . ... : C-3 02 . ... : ... .. . ... : ... .. . ... : ... .. . ...
ROW 2D : ... .. . ... : ... .. . ... : ... .. . ... : ... .. . ... : ... .. . ...
ROW 2E : ... .. . ... : C#3 02 . ... : ... .. . ... : ... .. . ... : ... .. . ...
ROW 2F : ... .. . ... : ... .. . ... : ... .. . ... : ... .. . ... : ... .. . ...

PATTERN 02
ROW 00 : --- .. . ... : D-3 02 . ... : ... .. . ... : --- .. . ... : ... .. . ...
ROW 01 : ... .. . ... : ... .. . ... : ... .. . ... : ... .. . ... : ... .. . ...
ROW 02 : ... .. . ... : --- .. . ... : ... .. . ... : ... .. . ... : ... .. . ...
ROW 03 : ... .. . ... : ... .. . ... : ... .. . ... : ... .. . ... : ... .. . ...
ROW 04 : ... .. . ... : F#3 02 . ... : ... .. . ... : ... .. . ... : ... .. . ...
ROW 05 : ... .. . ... : ... .. . ... : ... .. . ... : ... .. . ... : ... .. . ...
ROW 06 : ... .. . ... : ... .. . ... : ... .. . ... : ... .. . ... : ... .. . ...
ROW 07 : ... .. . ... : ... .. . ... : ... .. . ... : ... .. . ... : ... .. . ...
ROW 08 : ... .. . ... : A-3 02 . ... : ... .. . ... : ... .. . ... : ... .. . ...
ROW 09 : ... .. . ... : ... .. . ... : ... .. . ... : ... .. . ... : ... .. . ...
ROW 0A : ... .. . ... : ... .. . ... : ... .. . ... : ... .. . ... : ... .. . ...
ROW 0B : ... .. . ... : ... .. . ... : ... .. . ... : ... .. . ... : ... .. . ...
ROW 0C : ... .. . ... : D-3 02 . ... : ... .. . ... : ... .. . ... : ... .. . ...
ROW 0D : ... .. . ... : ... .. . ... : ... .. . ... : ... .. . ... : ... .. . ...
ROW 0E : ... .. . ... : --- .. . ... : ... .. . ... : ... .. . ... : ... .. . ...
ROW 0F : ... .. . ... : ... .. . ... : ... .. . ... : ... .. . ... : ... .. . ...
ROW 10 : ... .. . ... : A-3 02 . ... : ... .. . ... : ... .. . ... : ... .. . ...
ROW 11 : ... .. . ... : ... .. . ... : ... .. . ... : ... .. . ... : ... .. . ...
ROW 12 : ... .. . ... : ... .. . ... : ... .. . ... : ... .. . ... : ... .. . ...
ROW 13 : ... .. . ... : ... .. . ... : ... .. . ... : ... .. . ... : ... .. . ...
ROW 14 : ... .. . ... : F#3 02 . ... : ... .. . ... : ... .. . ... : ... .. . ...
ROW 15 : ... .. . ... : ... .. . ... : ... .. . ... : ... .. . ... : ... .. . ...
ROW 16 : ... .. . ... : E-3 02 . ... : ... .. . ... : ... .. . ... : ... .. . ...
ROW 17 : ... .. . ... : ... .. . ... : ... .. . ... : ... .. . ... : ... .. . ...
ROW 18 : ... .. . ... : D-3 02 . ... : ... .. . ... : ... .. . ... : ... .. . ...
ROW 19 : ... .. . ... : ... .. . ... : ... .. . ... : ... .. . ... : ... .. . ...
ROW 1A : ... .. . ... : --- .. . ... : ... .. . ... : ... .. . ... : ... .. . ...
ROW 1B : ... .. . ... : ... .. . ... : ... .. . ... : ... .. . ... : ... .. . ...
ROW 1C : ... .. . ... : F#3 02 . ... : ... .. . ... : ... .. . ... : ... .. . ...
ROW 1D : ... .. . ... : ... .. . ... : ... .. . ... : ... .. . ... : ... .. . ...
ROW 1E : ... .. . ... : ... .. . ... : ... .. . ... : ... .. . ... : ... .. . ...
ROW 1F : ... .. . ... : ... .. . ... : ... .. . ... : ... .. . ... : ... .. . ...
ROW 20 : ... .. . ... : A-3 02 . ... : ... .. . ... : ... .. . ... : ... .. . ...
ROW 21 : ... .. . ... : ... .. . ... : ... .. . ... : ... .. . ... : ... .. . ...
ROW 22 : ... .. . ... : ... .. . ... : ... .. . ... : ... .. . ... : ... .. . ...
ROW 23 : ... .. . ... : ... .. . ... : ... .. . ... : ... .. . ... : ... .. . ...
ROW 24 : ... .. . ... : D-3 02 . ... : ... .. . ... : ... .. . ... : ... .. . ...
ROW 25 : ... .. . ... : ... .. . ... : ... .. . ... : ... .. . ... : ... .. . ...
ROW 26 : ... .. . ... : --- .. . ... : ... .. . ... : ... .. . ... : ... .. . ...
ROW 27 : ... .. . ... : ... .. . ... : ... .. . ... : ... .. . ... : ... .. . ...
ROW 28 : ... .. . ... : F#2 02 . ... : ... .. . ... : ... .. . ... : ... .. . ...
ROW 29 : ... .. . ... : ... .. . ... : ... .. . ... : ... .. . ... : ... .. . ...
ROW 2A : ... .. . ... : A-2 02 . ... : ... .. . ... : ... .. . ... : ... .. . ...
ROW 2B : ... .. . ... : ... .. . ... : ... .. . ... : ... .. . ... : ... .. . ...
ROW 2C : ... .. . ... : B-2 02 . ... : ... .. . ... : ... .. . ... : ... .. . ...
ROW 2D : ... .. . ... : ... .. . ... : ... .. . ... : ... .. . ... : ... .. . ...
ROW 2E : ... .. . ... : C#3 02 . ... : ... .. . ... : ... .. . ... : ... .. . ...
ROW 2F : ... .. . ... : ... .. . ... : ... .. . ... : ... .. . ... : ... .. . ...

# End of export
